<svg viewBox="0 0 20 20" fill="none" xmlns="http://www.w3.org/2000/svg">
<path d="M14.9998 13.3333C14.9998 12.6703 14.7363 12.0346 14.2674 11.5658C13.7986 11.0969 13.1629 10.8333 12.4998 10.8333H5.83317V15.8333H12.4998C13.1629 15.8333 13.7986 15.5698 14.2674 15.1009C14.7363 14.6321 14.9998 13.9964 14.9998 13.3333ZM16.6665 13.3333C16.6665 14.4384 16.2272 15.4979 15.4458 16.2793C14.6644 17.0607 13.6049 17.5 12.4998 17.5H5.83317C5.39114 17.5 4.96735 17.3243 4.65479 17.0117C4.34222 16.6992 4.1665 16.2754 4.1665 15.8333V4.16667C4.1665 3.72464 4.34222 3.30084 4.65479 2.98828C4.96735 2.67572 5.39114 2.5 5.83317 2.5H11.6665C12.7716 2.5 13.8311 2.9393 14.6125 3.7207C15.3939 4.5021 15.8332 5.5616 15.8332 6.66667C15.8332 7.77174 15.3939 8.83123 14.6125 9.61263C14.5845 9.64063 14.5549 9.66689 14.5262 9.69401C14.8604 9.88007 15.1705 10.1121 15.4458 10.3874C16.2272 11.1688 16.6665 12.2283 16.6665 13.3333ZM5.83317 9.16667H11.6665C12.3295 9.16667 12.9652 8.90309 13.4341 8.43424C13.9029 7.9654 14.1665 7.32971 14.1665 6.66667C14.1665 6.00363 13.9029 5.36793 13.4341 4.89909C12.9652 4.43025 12.3295 4.16667 11.6665 4.16667H5.83317V9.16667Z" fill="currentColor"/>
</svg>
