<svg viewBox="0 0 22 22" fill="none" xmlns="http://www.w3.org/2000/svg">
<path d="M18.3333 3.66667C18.8396 3.66667 19.25 4.07708 19.25 4.58334C19.25 5.0896 18.8396 5.50001 18.3333 5.50001H3.66667C3.16041 5.50001 2.75 5.0896 2.75 4.58334C2.75 4.07708 3.16041 3.66667 3.66667 3.66667H18.3333Z" fill="currentColor"/>
<path d="M18.3333 10.0833C18.8396 10.0833 19.25 10.4937 19.25 11C19.25 11.5063 18.8396 11.9167 18.3333 11.9167H3.66667C3.16041 11.9167 2.75 11.5063 2.75 11C2.75 10.4937 3.16041 10.0833 3.66667 10.0833H18.3333Z" fill="currentColor"/>
<path d="M18.3333 16.5C18.8396 16.5 19.25 16.9104 19.25 17.4167C19.25 17.9229 18.8396 18.3333 18.3333 18.3333H3.66667C3.16041 18.3333 2.75 17.9229 2.75 17.4167C2.75 16.9104 3.16041 16.5 3.66667 16.5H18.3333Z" fill="currentColor"/>
</svg>
