<svg viewBox="0 0 14 14" fill="none" xmlns="http://www.w3.org/2000/svg">
<path d="M12.2502 5.25C12.2502 5.09529 12.1887 4.94696 12.0793 4.83756C11.9699 4.72817 11.8215 4.66667 11.6668 4.66667H10.5019C10.1862 4.66666 9.87632 4.58117 9.60522 4.41943C9.33416 4.25769 9.11201 4.02557 8.96208 3.7478L8.67838 3.22314C8.62845 3.13063 8.55444 3.05317 8.46419 2.99927C8.37383 2.94536 8.27034 2.91667 8.16512 2.91667H5.83577C5.73071 2.91666 5.62754 2.94495 5.53727 2.9987C5.44709 3.05243 5.37312 3.12973 5.32308 3.22201L5.03768 3.74951C4.88756 4.02686 4.66489 4.25859 4.39396 4.42C4.12309 4.58135 3.81374 4.66667 3.49845 4.66667H2.3335C2.17879 4.66667 2.03046 4.72817 1.92106 4.83756C1.81166 4.94696 1.75016 5.09529 1.75016 5.25V10.5C1.75016 10.6547 1.81166 10.803 1.92106 10.9124C2.03046 11.0218 2.17879 11.0833 2.3335 11.0833H11.6668C11.8215 11.0833 11.9699 11.0218 12.0793 10.9124C12.1887 10.803 12.2502 10.6547 12.2502 10.5V5.25ZM13.4168 10.5C13.4168 10.9641 13.2323 11.4091 12.9041 11.7373C12.5759 12.0655 12.131 12.25 11.6668 12.25H2.3335C1.86937 12.25 1.42438 12.0655 1.09619 11.7373C0.768003 11.4091 0.583496 10.9641 0.583496 10.5V5.25C0.583496 4.78587 0.768003 4.34088 1.09619 4.0127C1.42438 3.68451 1.86937 3.5 2.3335 3.5H3.49845C3.60352 3.5 3.70668 3.47172 3.79696 3.41797C3.88727 3.36416 3.96168 3.28654 4.01172 3.19409L4.29655 2.66715L4.35636 2.56519C4.50318 2.33284 4.70321 2.1379 4.94027 1.99666C5.21114 1.83531 5.52049 1.75 5.83577 1.75H8.16512C8.4808 1.75 8.79067 1.8355 9.06177 1.99723C9.33283 2.15897 9.55498 2.39109 9.70492 2.66886L9.98861 3.19352C10.0385 3.28603 10.1125 3.36349 10.2028 3.4174C10.2932 3.47131 10.3967 3.5 10.5019 3.5H11.6668C12.131 3.5 12.5759 3.68451 12.9041 4.0127C13.2323 4.34088 13.4168 4.78587 13.4168 5.25V10.5Z" fill="currentColor"/>
<path d="M8.1665 7.58333C8.1665 6.939 7.64417 6.41667 6.99984 6.41667C6.3555 6.41667 5.83317 6.939 5.83317 7.58333C5.83317 8.22767 6.3555 8.75 6.99984 8.75C7.64417 8.75 8.1665 8.22767 8.1665 7.58333ZM9.33317 7.58333C9.33317 8.872 8.2885 9.91667 6.99984 9.91667C5.71117 9.91667 4.6665 8.872 4.6665 7.58333C4.6665 6.29467 5.71117 5.25 6.99984 5.25C8.2885 5.25 9.33317 6.29467 9.33317 7.58333Z" fill="currentColor"/>
</svg>
