<svg viewBox="0 0 16 16" fill="none" xmlns="http://www.w3.org/2000/svg">
<path d="M14.0001 4.66663C14.0001 4.29844 13.7016 3.99996 13.3334 3.99996H2.66675C2.29856 3.99996 2.00008 4.29844 2.00008 4.66663V11.3333C2.00008 11.7015 2.29856 12 2.66675 12H13.3334C13.7016 12 14.0001 11.7015 14.0001 11.3333V4.66663ZM15.3334 11.3333C15.3334 12.4379 14.438 13.3333 13.3334 13.3333H2.66675C1.56218 13.3333 0.666748 12.4379 0.666748 11.3333V4.66663C0.666748 3.56206 1.56218 2.66663 2.66675 2.66663H13.3334C14.438 2.66663 15.3334 3.56206 15.3334 4.66663V11.3333Z" fill="currentColor"/>
<path d="M14.6667 6C15.0349 6 15.3334 6.29848 15.3334 6.66667C15.3334 7.03486 15.0349 7.33333 14.6667 7.33333H1.33341C0.965225 7.33333 0.666748 7.03486 0.666748 6.66667C0.666748 6.29848 0.965225 6 1.33341 6H14.6667Z" fill="currentColor"/>
</svg>
