<svg viewBox="0 0 20 20" fill="none" xmlns="http://www.w3.org/2000/svg">
<path d="M14.1633 0.888678C15.4741 0.900155 16.7283 1.42656 17.6553 2.35352C18.5821 3.28053 19.1079 4.53471 19.1193 5.84555C19.1306 7.15626 18.6269 8.41909 17.7163 9.36199L15.2058 11.8726C14.6989 12.3796 14.0887 12.7719 13.417 13.0225C12.7453 13.273 12.0276 13.3756 11.3125 13.3244C10.5974 13.2732 9.90151 13.0692 9.27233 12.7254C8.64317 12.3817 8.09532 11.9063 7.66589 11.3322C7.39037 10.9637 7.46586 10.4417 7.83434 10.166C8.20288 9.89051 8.72489 9.966 9.00052 10.3345C9.2868 10.7171 9.6521 11.0339 10.0715 11.263C10.4909 11.4921 10.9547 11.6284 11.4313 11.6626C11.908 11.6967 12.3866 11.6277 12.8343 11.4608C13.2822 11.2937 13.6895 11.0322 14.0274 10.6942L16.5168 8.20476C17.124 7.57609 17.4603 6.73337 17.4527 5.85938C17.445 4.98566 17.0947 4.14982 16.4769 3.53191C15.8589 2.91392 15.0226 2.56298 14.1486 2.55534C13.2747 2.54775 12.4327 2.88406 11.8041 3.49122L11.8033 3.4904L10.3791 4.90723C10.0527 5.23172 9.5252 5.23036 9.20072 4.90398C8.87626 4.57759 8.8776 4.05007 9.20397 3.72559L10.6371 2.30062C10.6399 2.29782 10.6432 2.29525 10.646 2.29249C11.589 1.3817 12.8523 0.877286 14.1633 0.888678Z" fill="currentColor"/>
<path d="M8.68736 6.67541C9.40246 6.72662 10.0984 6.93064 10.7276 7.27436C11.3568 7.61812 11.9046 8.09347 12.334 8.66759C12.6096 9.03603 12.5346 9.55804 12.1664 9.83377C11.7979 10.1094 11.2751 10.0346 10.9994 9.66613C10.7131 9.28338 10.3479 8.96594 9.92841 8.73677C9.50904 8.50769 9.04519 8.37134 8.56855 8.33719C8.09189 8.30305 7.61331 8.37203 7.16555 8.53901C6.71771 8.70607 6.31044 8.96757 5.97252 9.30561L3.48229 11.795C2.87512 12.4237 2.53963 13.2664 2.54723 14.1404C2.55487 15.0143 2.9058 15.8507 3.52379 16.4687C4.14171 17.0864 4.97755 17.4368 5.85126 17.4444C6.72525 17.452 7.56797 17.1158 8.19664 16.5086L9.61103 15.0942C9.93647 14.7688 10.464 14.7688 10.7894 15.0942C11.1148 15.4196 11.1148 15.9472 10.7894 16.2726L9.35387 17.7081C8.41097 18.6186 7.14815 19.1224 5.83743 19.1111C4.5266 19.0997 3.27241 18.5739 2.3454 17.6471C1.41844 16.7201 0.892039 15.4659 0.88056 14.1551C0.869168 12.8441 1.37358 11.5808 2.28437 10.6378L2.29413 10.6272L4.79413 8.12723C5.301 7.62022 5.91116 7.22789 6.58287 6.97733C7.25454 6.7268 7.97232 6.62421 8.68736 6.67541Z" fill="currentColor"/>
</svg>
