<svg viewBox="0 0 16 16" fill="none" xmlns="http://www.w3.org/2000/svg">
<path d="M1.3335 12.6668V3.3335C1.3335 2.80306 1.54436 2.29451 1.91943 1.91943C2.29451 1.54436 2.80306 1.3335 3.3335 1.3335H11.5627C11.9309 1.3335 12.2293 1.63197 12.2293 2.00016C12.2293 2.36835 11.9309 2.66683 11.5627 2.66683H3.3335C3.15668 2.66683 2.98717 2.73712 2.86214 2.86214C2.73712 2.98717 2.66683 3.15668 2.66683 3.3335V12.6668C2.66683 12.8436 2.73712 13.0132 2.86214 13.1382C2.98717 13.2632 3.15669 13.3335 3.3335 13.3335H12.6668C12.8436 13.3335 13.0132 13.2632 13.1382 13.1382C13.2632 13.0132 13.3335 12.8436 13.3335 12.6668V7.10433C13.3335 6.73614 13.632 6.43766 14.0002 6.43766C14.3684 6.43766 14.6668 6.73614 14.6668 7.10433V12.6668C14.6668 13.1973 14.456 13.7058 14.0809 14.0809C13.7058 14.456 13.1973 14.6668 12.6668 14.6668H3.3335C2.80306 14.6668 2.29451 14.456 1.91943 14.0809C1.54436 13.7058 1.3335 13.1973 1.3335 12.6668Z" fill="currentColor"/>
<path d="M14.1954 2.19526C14.4558 1.93491 14.8778 1.93491 15.1381 2.19526C15.3985 2.45561 15.3985 2.87762 15.1381 3.13797L8.47147 9.80464C8.21112 10.065 7.78911 10.065 7.52876 9.80464L5.52876 7.80464C5.26841 7.54429 5.26841 7.12228 5.52876 6.86193C5.78911 6.60158 6.21112 6.60158 6.47147 6.86193L8.00011 8.39057L14.1954 2.19526Z" fill="currentColor"/>
</svg>
