<svg viewBox="0 0 16 16" fill="none" xmlns="http://www.w3.org/2000/svg">
<g clip-path="url(#clip0_3_455)">
<path d="M13.9998 8.00001C13.9998 4.6863 11.3135 2.00001 7.99984 2.00001C4.68613 2.00001 1.99984 4.6863 1.99984 8.00001C1.99984 11.3137 4.68613 14 7.99984 14C11.3135 14 13.9998 11.3137 13.9998 8.00001ZM15.3332 8.00001C15.3332 12.0501 12.0499 15.3333 7.99984 15.3333C3.94975 15.3333 0.666504 12.0501 0.666504 8.00001C0.666504 3.94992 3.94975 0.666672 7.99984 0.666672C12.0499 0.666672 15.3332 3.94992 15.3332 8.00001Z" fill="currentColor"/>
<path d="M7.3335 3.99999C7.3335 3.63181 7.63197 3.33333 8.00016 3.33333C8.36835 3.33333 8.66683 3.63181 8.66683 3.99999V7.58789L10.965 8.73697C11.2943 8.90163 11.4278 9.30219 11.2632 9.63151C11.0985 9.96082 10.698 10.0943 10.3687 9.92968L7.70199 8.59635C7.47613 8.48342 7.3335 8.25251 7.3335 8V3.99999Z" fill="currentColor"/>
</g>
<defs>
<clipPath id="clip0_3_455">
<rect width="16" height="16" fill="white"/>
</clipPath>
</defs>
</svg>
