<svg viewBox="0 0 20 20" fill="none" xmlns="http://www.w3.org/2000/svg">
<path d="M12.7441 4.41083C13.0695 4.08539 13.597 4.08539 13.9225 4.41083L18.9225 9.41083C19.2479 9.73626 19.2479 10.2638 18.9225 10.5892L13.9225 15.5892C13.597 15.9146 13.0695 15.9146 12.7441 15.5892C12.4186 15.2638 12.4186 14.7363 12.7441 14.4108L17.1549 10L12.7441 5.58921C12.4186 5.26377 12.4186 4.73626 12.7441 4.41083Z" fill="currentColor"/>
<path d="M6.07757 4.41083C6.40301 4.08539 6.93052 4.08539 7.25596 4.41083C7.5814 4.73626 7.5814 5.26377 7.25596 5.58921L2.84515 10L7.25596 14.4108C7.5814 14.7363 7.5814 15.2638 7.25596 15.5892C6.93052 15.9146 6.40301 15.9146 6.07757 15.5892L1.07757 10.5892C0.752137 10.2638 0.752137 9.73626 1.07757 9.41083L6.07757 4.41083Z" fill="currentColor"/>
</svg>
