<svg viewBox="0 0 16 16" fill="none" xmlns="http://www.w3.org/2000/svg">
<g clip-path="url(#clip0_3_463)">
<path d="M3.73721 2.0334C5.14345 1.02882 6.85952 0.553137 8.58226 0.690305C10.3051 0.827542 11.9243 1.5688 13.1539 2.7834C14.3833 3.99792 15.1446 5.60745 15.303 7.32832C15.4612 9.0493 15.0064 10.7712 14.0191 12.1897C13.0317 13.6081 11.5747 14.6324 9.90583 15.0816C8.24987 15.5272 6.49079 15.3778 4.93383 14.661C4.82522 14.6215 4.70846 14.6111 4.59463 14.6304L2.3583 15.2847C2.3531 15.2862 2.34792 15.2879 2.34268 15.2893C2.1232 15.3475 1.89219 15.3484 1.67211 15.2925C1.4521 15.2366 1.24989 15.1255 1.08487 14.9696C0.9198 14.8136 0.79704 14.6178 0.728747 14.4012C0.660485 14.1847 0.648558 13.9543 0.694242 13.732L0.713122 13.6604L1.40843 11.5126C1.43219 11.39 1.42209 11.2634 1.37718 11.1467C0.641812 9.59881 0.470778 7.84215 0.896065 6.18119C1.32477 4.50704 2.33107 3.03803 3.73721 2.0334ZM8.47679 2.01908C7.06722 1.9068 5.66321 2.29609 4.5126 3.11804C3.36199 3.94001 2.53851 5.14206 2.18773 6.51192C1.85892 7.79608 1.96553 9.15031 2.48591 10.3641L2.59528 10.605L2.61416 10.6493C2.76114 11.0201 2.79431 11.4264 2.70856 11.816C2.70397 11.8368 2.69821 11.8575 2.69164 11.8778L2.00479 13.9982L4.25935 13.3394C4.27826 13.3339 4.29796 13.3296 4.31729 13.3257C4.63901 13.2619 4.97077 13.2777 5.28343 13.3719L5.41625 13.4175L5.46117 13.4364C6.7424 14.0347 8.19401 14.1613 9.55948 13.7938C10.9249 13.4263 12.1169 12.5885 12.9247 11.4279C13.7325 10.2674 14.1043 8.8588 13.9748 7.45072C13.8453 6.04271 13.2229 4.7257 12.217 3.73197C11.2111 2.73823 9.88634 2.13139 8.47679 2.01908Z" fill="currentColor"/>
</g>
<defs>
<clipPath id="clip0_3_463">
<rect width="16" height="16" fill="white"/>
</clipPath>
</defs>
</svg>
