<svg viewBox="0 0 12 12" fill="none" xmlns="http://www.w3.org/2000/svg">
<g clip-path="url(#clip0_3_1482)">
<path d="M10.5 5C10.5 4.72386 10.2761 4.5 10 4.5H5C4.72386 4.5 4.5 4.72386 4.5 5V10C4.5 10.2761 4.72386 10.5 5 10.5H10C10.2761 10.5 10.5 10.2761 10.5 10V5ZM11.5 10C11.5 10.8284 10.8284 11.5 10 11.5H5C4.17157 11.5 3.5 10.8284 3.5 10V5C3.5 4.17157 4.17157 3.5 5 3.5H10C10.8284 3.5 11.5 4.17157 11.5 5V10Z" fill="currentColor"/>
<path d="M7.5 2C7.5 1.72614 7.27386 1.5 7 1.5H2C1.72614 1.5 1.5 1.72614 1.5 2V7C1.5 7.27386 1.72614 7.5 2 7.5C2.27614 7.5 2.5 7.72386 2.5 8C2.5 8.27614 2.27614 8.5 2 8.5C1.17386 8.5 0.5 7.82614 0.5 7V2C0.5 1.17386 1.17386 0.5 2 0.5H7C7.82614 0.5 8.5 1.17386 8.5 2C8.5 2.27614 8.27614 2.5 8 2.5C7.72386 2.5 7.5 2.27614 7.5 2Z" fill="currentColor"/>
</g>
<defs>
<clipPath id="clip0_3_1482">
<rect width="12" height="12" fill="white"/>
</clipPath>
</defs>
</svg>
