<svg viewBox="0 0 16 16" fill="none" xmlns="http://www.w3.org/2000/svg">
<path d="M8.00033 2.66705C9.55155 2.66712 11.068 3.12782 12.3571 3.99062C13.5656 4.79951 14.5236 5.92767 15.126 7.24713L15.2419 7.51406L15.2503 7.53619C15.3614 7.83549 15.3614 8.16465 15.2503 8.46393C15.2476 8.47132 15.2449 8.47877 15.2419 8.48606C14.6504 9.9202 13.6463 11.1466 12.3571 12.0095C11.068 12.8723 9.55155 13.333 8.00033 13.3331C6.449 13.3331 4.93213 12.8724 3.64291 12.0095C2.35371 11.1466 1.3496 9.92019 0.758142 8.48606C0.755138 8.47878 0.752422 8.47132 0.749678 8.46393C0.638598 8.16465 0.638635 7.83548 0.749678 7.53619L0.758142 7.51406C1.34959 6.07996 2.35375 4.85348 3.64291 3.99062C4.93213 3.12776 6.449 2.66705 8.00033 2.66705ZM8.00033 4.00039C6.71305 4.00039 5.45423 4.3827 4.38444 5.09869C3.32148 5.81018 2.49228 6.81941 2.00033 7.99974C2.49227 9.18026 3.32132 10.1899 4.38444 10.9014C5.45423 11.6174 6.71305 11.9997 8.00033 11.9997C9.2875 11.9997 10.5459 11.6174 11.6156 10.9014C12.6786 10.1899 13.5071 9.18017 13.999 7.99974C13.5071 6.81951 12.6785 5.81013 11.6156 5.09869C10.5459 4.38276 9.2875 4.00045 8.00033 4.00039Z" fill="currentColor"/>
<path d="M9.33337 7.99998C9.33337 7.2636 8.73642 6.66665 8.00004 6.66665C7.26366 6.66665 6.66671 7.2636 6.66671 7.99998C6.66671 8.73636 7.26366 9.33331 8.00004 9.33331C8.73642 9.33331 9.33337 8.73636 9.33337 7.99998ZM10.6667 7.99998C10.6667 9.47274 9.4728 10.6666 8.00004 10.6666C6.52728 10.6666 5.33337 9.47274 5.33337 7.99998C5.33337 6.52722 6.52728 5.33331 8.00004 5.33331C9.4728 5.33331 10.6667 6.52722 10.6667 7.99998Z" fill="currentColor"/>
</svg>
