<svg viewBox="0 0 14 14" fill="none" xmlns="http://www.w3.org/2000/svg">
<path d="M7.59095 8.00472C7.62587 7.62981 7.78079 7.27438 8.03529 6.993L12.2485 2.33317H1.75021L5.96457 6.993C6.25542 7.31454 6.41668 7.73293 6.41688 8.1665V11.6671L7.58298 12.2498H7.58355V8.1665L7.59095 8.00472ZM8.75021 12.2498L8.74793 12.3239C8.73697 12.497 8.68734 12.6657 8.60267 12.8178C8.5059 12.9915 8.36618 13.1376 8.19707 13.2422C8.02792 13.3468 7.83464 13.4064 7.63595 13.4154C7.46218 13.4232 7.28921 13.3922 7.12953 13.3248L7.06174 13.2935L5.89507 12.7101C5.70121 12.6132 5.53788 12.4644 5.42396 12.28C5.3243 12.1187 5.26611 11.9358 5.25306 11.7474L5.25021 11.6665V8.1665C5.25008 8.02207 5.19615 7.88283 5.09925 7.77572L0.884327 3.11532V3.11475C0.733158 2.94725 0.633868 2.73941 0.598357 2.5166C0.562882 2.29383 0.592214 2.06536 0.683806 1.85921C0.775423 1.65307 0.925351 1.47803 1.11447 1.35506C1.30355 1.23217 1.52413 1.16661 1.74964 1.1665H12.2514L12.3357 1.16992C12.5314 1.18457 12.7208 1.24844 12.886 1.3562C13.0747 1.47935 13.2242 1.65428 13.3155 1.86035C13.4068 2.06638 13.4365 2.29465 13.4009 2.51717C13.3653 2.73969 13.2659 2.94743 13.115 3.11475L13.1144 3.11532L8.90117 7.77572H8.9006C8.80375 7.88282 8.75034 8.0221 8.75021 8.1665V12.2498Z" fill="currentColor"/>
</svg>
