<svg viewBox="0 0 13 13" fill="none" xmlns="http://www.w3.org/2000/svg">
<path d="M0.541504 9.74992V2.70825C0.541504 2.27728 0.712831 1.86407 1.01758 1.55933C1.32232 1.25458 1.73553 1.08325 2.1665 1.08325H4.29508C4.56407 1.0833 4.829 1.15032 5.0658 1.27791C5.3026 1.40553 5.50446 1.58963 5.65243 1.81429H5.6519L6.08777 2.45911L6.09094 2.4644C6.14077 2.54006 6.20882 2.60219 6.28878 2.64478C6.36868 2.68732 6.45799 2.70911 6.5485 2.70825H10.8332C11.2641 2.70825 11.6773 2.87958 11.9821 3.18433C12.2868 3.48907 12.4582 3.90228 12.4582 4.33325V9.74992C12.4582 10.1809 12.2868 10.5941 11.9821 10.8988C11.6774 11.2036 11.2641 11.3749 10.8332 11.3749H2.1665C1.73553 11.3749 1.32232 11.2036 1.01758 10.8988C0.712832 10.5941 0.541504 10.1809 0.541504 9.74992ZM1.62484 9.74992C1.62484 9.89358 1.68195 10.0313 1.78353 10.1329C1.88511 10.2345 2.02285 10.2916 2.1665 10.2916H10.8332C10.9768 10.2916 11.1146 10.2345 11.2161 10.1329C11.3177 10.0313 11.3748 9.89358 11.3748 9.74992V4.33325C11.3748 4.18959 11.3177 4.05186 11.2161 3.95028C11.1146 3.84869 10.9768 3.79159 10.8332 3.79159H6.55379V3.79106C6.28391 3.79279 6.01764 3.72804 5.77938 3.60116C5.54129 3.47435 5.33873 3.29 5.18958 3.06531L4.75106 2.41573L4.74736 2.41044C4.69807 2.33561 4.63103 2.27419 4.55217 2.23165C4.47322 2.18911 4.38476 2.1666 4.29508 2.16659H2.1665C2.02284 2.16659 1.88511 2.22369 1.78353 2.32528C1.68195 2.42686 1.62484 2.56459 1.62484 2.70825V9.74992Z" fill="currentColor"/>
</svg>
