<svg viewBox="0 0 16 16" fill="none" xmlns="http://www.w3.org/2000/svg">
<path fill-rule="evenodd" clip-rule="evenodd" d="M6.50012 1L5.75012 3.25C5.25012 3.44 4.78012 3.7 4.37012 4.02L2.12012 3.27L0.620117 5.85L2.37012 7.44C2.33012 7.63 2.31012 7.81 2.31012 8C2.31012 8.19 2.33012 8.37 2.37012 8.56L0.620117 10.15L2.12012 12.73L4.37012 11.98C4.78012 12.3 5.25012 12.56 5.75012 12.75L6.50012 15H9.50012L10.2501 12.75C10.7501 12.56 11.2201 12.3 11.6301 11.98L13.8801 12.73L15.3801 10.15L13.6301 8.56C13.6701 8.37 13.6901 8.19 13.6901 8C13.6901 7.81 13.6701 7.63 13.6301 7.44L15.3801 5.85L13.8801 3.27L11.6301 4.02C11.2201 3.7 10.7501 3.44 10.2501 3.25L9.50012 1H6.50012ZM8.00012 5.5C9.38012 5.5 10.5001 6.62 10.5001 8C10.5001 9.38 9.38012 10.5 8.00012 10.5C6.62012 10.5 5.50012 9.38 5.50012 8C5.50012 6.62 6.62012 5.5 8.00012 5.5Z" fill="currentColor"/>
</svg>
