<svg viewBox="0 0 22 22" fill="none" xmlns="http://www.w3.org/2000/svg">
<path d="M16.4847 10.9998C16.4847 10.5081 16.6034 10.0235 16.8302 9.58724C17.057 9.15102 17.3856 8.77573 17.7881 8.49333C18.032 8.3158 18.2023 8.05441 18.2661 7.75928C18.3305 7.46123 18.2816 7.14963 18.1291 6.88558C17.9766 6.62161 17.731 6.42379 17.4407 6.33057C17.1503 6.23741 16.8349 6.25549 16.5572 6.38159C16.1137 6.58658 15.6275 6.68219 15.1392 6.66089C14.6479 6.63941 14.1687 6.5002 13.7427 6.25448C13.3168 6.00873 12.9563 5.66371 12.6918 5.24919C12.4273 4.83461 12.2661 4.36222 12.2227 3.8724V3.8715C12.1924 3.56972 12.0516 3.2897 11.8271 3.08553C11.601 2.87994 11.3064 2.76599 11.0008 2.76595C10.6952 2.76595 10.4006 2.88 10.1745 3.08553C9.9485 3.29111 9.80697 3.5736 9.77798 3.87777C9.77508 3.90834 9.77032 3.93866 9.76455 3.96818C9.70971 4.42359 9.55515 4.86177 9.30801 5.24919C9.04351 5.66377 8.68302 6.0087 8.25707 6.25448C7.83107 6.50027 7.35193 6.63939 6.86058 6.66089C6.3692 6.68237 5.87951 6.5857 5.43366 6.37801V6.37712C5.15839 6.25541 4.84763 6.23929 4.56086 6.33146C4.2708 6.42473 4.0258 6.62268 3.87336 6.88647C3.72093 7.15042 3.67217 7.46222 3.7364 7.76017C3.80069 8.05794 3.9732 8.32107 4.22069 8.4987H4.2198C4.61893 8.78051 4.94504 9.15366 5.17048 9.58724C5.39727 10.0235 5.51602 10.5082 5.51602 10.9998C5.51597 11.4913 5.39716 11.9755 5.17048 12.4115C4.94495 12.8453 4.61826 13.2182 4.2189 13.5001L4.2198 13.501C3.97207 13.6785 3.79904 13.9416 3.73461 14.2395C3.67023 14.5377 3.71898 14.85 3.87157 15.1141C4.02417 15.3781 4.26962 15.576 4.55996 15.6691C4.85026 15.7622 5.16499 15.744 5.44261 15.6181C5.88637 15.4127 6.37287 15.3167 6.86148 15.3379C7.35292 15.3592 7.83184 15.4986 8.25796 15.7443C8.68412 15.9901 9.04521 16.3348 9.3098 16.7496C9.57329 17.1627 9.73303 17.6331 9.77709 18.121H9.77798C9.80691 18.4253 9.94843 18.7076 10.1745 18.9132C10.4007 19.1189 10.6952 19.2328 11.0008 19.2328C11.3064 19.2328 11.601 19.1189 11.8271 18.9132C12.0531 18.7076 12.1947 18.4252 12.2236 18.121C12.2677 17.6333 12.4284 17.1634 12.6918 16.7505C12.9563 16.3358 13.3167 15.991 13.7427 15.7452C14.1688 15.4994 14.6479 15.3594 15.1392 15.3379C15.6275 15.3166 16.1136 15.413 16.5572 15.6181L16.6628 15.6602C16.9132 15.7469 17.1865 15.7506 17.4407 15.6691C17.731 15.5759 17.9766 15.378 18.1291 15.1141C18.2817 14.85 18.3305 14.5377 18.2661 14.2395C18.2017 13.9417 18.0285 13.6785 17.7809 13.501V13.5001C17.3817 13.2183 17.0557 12.8452 16.8302 12.4115C16.6035 11.9754 16.4847 11.4914 16.4847 10.9998ZM18.318 10.9998C18.3181 11.197 18.3658 11.3916 18.4568 11.5665C18.525 11.6975 18.6161 11.8147 18.7253 11.9129L18.8408 12.0051L18.848 12.0105C19.466 12.4532 19.8978 13.1097 20.0583 13.8528C20.2187 14.5959 20.0966 15.3724 19.7163 16.0308C19.336 16.6891 18.7242 17.1825 18.0002 17.4147C17.2763 17.6469 16.4921 17.6009 15.7999 17.2867L15.7909 17.2831C15.6122 17.1999 15.4159 17.1608 15.2189 17.1694C15.0218 17.1781 14.8294 17.2338 14.6585 17.3324C14.4876 17.431 14.343 17.5697 14.2369 17.7361C14.1308 17.9024 14.0663 18.0919 14.0489 18.2884V18.2947C13.9768 19.053 13.6241 19.7569 13.0606 20.2695C12.497 20.782 11.7626 21.0661 11.0008 21.0662C10.239 21.0662 9.50461 20.782 8.94099 20.2695C8.37742 19.7569 8.02484 19.053 7.95271 18.2947L7.95181 18.2884C7.93446 18.0918 7.86993 17.9025 7.76382 17.7361C7.65766 17.5697 7.51318 17.431 7.34219 17.3324C7.17121 17.2337 6.979 17.178 6.78181 17.1694C6.58472 17.1609 6.38859 17.1998 6.20979 17.2831L6.20083 17.2867C5.50865 17.601 4.72436 17.6468 4.00048 17.4147C3.27654 17.1825 2.66476 16.689 2.28441 16.0308C1.90407 15.3724 1.78198 14.596 1.94245 13.8528C2.10295 13.1097 2.5347 12.4532 3.15274 12.0105L3.1599 12.0051C3.32123 11.8919 3.45297 11.7414 3.54393 11.5665C3.63488 11.3916 3.68264 11.197 3.68269 10.9998C3.68269 10.8027 3.63484 10.6081 3.54393 10.4332C3.45294 10.2582 3.32136 10.107 3.1599 9.99365L3.15184 9.98828C2.53462 9.54532 2.10432 8.88866 1.94424 8.146C1.78417 7.40334 1.90538 6.6277 2.28531 5.96981C2.66524 5.31191 3.27632 4.81841 3.99958 4.58586C4.63226 4.38246 5.31149 4.39142 5.93496 4.60645L6.19904 4.71118L6.208 4.71566C6.38675 4.79893 6.58301 4.83789 6.78002 4.82935C6.97706 4.82073 7.16954 4.76495 7.3404 4.66642C7.51132 4.56781 7.6559 4.42906 7.76203 4.2627C7.86814 4.09635 7.93264 3.90691 7.95002 3.71037C7.9534 3.67228 7.95923 3.63494 7.96703 3.59847C8.06065 2.88076 8.40382 2.21786 8.94099 1.72933C9.50459 1.21681 10.239 0.932617 11.0008 0.932617C11.7626 0.932657 12.497 1.21678 13.0606 1.72933C13.5538 2.17785 13.8852 2.77311 14.0086 3.42301L14.0489 3.705V3.71037C14.0663 3.90682 14.1309 4.0964 14.2369 4.2627C14.343 4.42901 14.4877 4.56781 14.6585 4.66642C14.8294 4.76502 15.0218 4.82071 15.2189 4.82935C15.4159 4.83796 15.6121 4.79888 15.7909 4.71566L15.7999 4.71208C16.4921 4.39791 17.2764 4.35194 18.0002 4.58407C18.7241 4.81625 19.336 5.30976 19.7163 5.96802C20.0966 6.62631 20.2187 7.40286 20.0583 8.146C19.8978 8.88917 19.4661 9.54643 18.848 9.98918L18.8408 9.99365C18.6793 10.107 18.5478 10.2582 18.4568 10.4332C18.3658 10.6082 18.318 10.8026 18.318 10.9998Z" fill="currentColor"/>
<path d="M12.8335 10.9999C12.8335 9.9874 12.0127 9.16659 11.0002 9.16659C9.98764 9.16659 9.16683 9.9874 9.16683 10.9999C9.16683 12.0124 9.98764 12.8333 11.0002 12.8333C12.0127 12.8333 12.8335 12.0124 12.8335 10.9999ZM14.6668 10.9999C14.6668 13.025 13.0252 14.6666 11.0002 14.6666C8.97512 14.6666 7.3335 13.025 7.3335 10.9999C7.3335 8.97487 8.97512 7.33325 11.0002 7.33325C13.0252 7.33325 14.6668 8.97487 14.6668 10.9999Z" fill="currentColor"/>
</svg>
