<svg viewBox="0 0 16 16" fill="none" xmlns="http://www.w3.org/2000/svg">
<path d="M9.33343 14.6667V12C9.33343 11.9754 9.33462 11.9509 9.33733 11.9265C9.41076 11.2653 9.22095 10.602 8.80934 10.0794C8.65132 9.87885 8.62233 9.60541 8.73382 9.37567C8.84532 9.14598 9.0781 9.00002 9.33343 9.00002C11.0842 8.99996 12.6668 7.85647 12.6668 6.00002C12.6668 5.9859 12.6672 5.97179 12.6681 5.9577C12.7116 5.27723 12.5213 4.60921 12.1244 4.05471C12.0115 3.89689 11.9731 3.6977 12.019 3.50914C12.1235 3.07981 12.1585 2.63838 12.1277 2.20054C11.8653 2.32725 11.5114 2.53289 11.0665 2.86656C10.9167 2.97893 10.7264 3.02315 10.5424 2.9883C8.86444 2.67052 7.13509 2.6705 5.45712 2.9883C5.27316 3.02308 5.08282 2.97889 4.93303 2.86656C4.48287 2.52896 4.12605 2.32227 3.86272 2.19598C3.82897 2.6317 3.86709 3.07122 3.97861 3.49872C4.02847 3.69029 3.99042 3.89446 3.87509 4.05536C3.47965 4.60719 3.28787 5.27895 3.33212 5.9564C3.33307 5.97088 3.33343 5.98551 3.33343 6.00002C3.33343 7.85652 4.91598 9.00002 6.66676 9.00002C6.92261 9.00007 7.15583 9.14655 7.26702 9.37697C7.37819 9.60754 7.34765 9.88177 7.18824 10.0821C6.98212 10.3411 6.83036 10.6354 6.74163 10.9486C6.65227 11.264 6.62513 11.5967 6.6622 11.9252C6.66501 11.95 6.66676 11.975 6.66676 12V14.6667C6.66676 15.0348 6.36822 15.3333 6.00009 15.3334C5.6319 15.3334 5.33343 15.0349 5.33343 14.6667V12.0293C5.28456 11.5458 5.32532 11.0545 5.45843 10.5847C5.49393 10.4594 5.53606 10.3365 5.58408 10.2162C3.71704 9.81408 2.02227 8.37812 2.00139 6.04364L1.99358 5.85874C1.97559 5.04008 2.19408 4.23478 2.62053 3.53778C2.46312 2.75254 2.48524 1.94375 2.68824 1.16538L2.72535 1.05927C2.83156 0.823427 3.06799 0.666687 3.33343 0.666687V1.33335C3.33343 0.69525 3.33361 0.667858 3.33408 0.666687H3.351C3.35747 0.66684 3.36475 0.666975 3.37249 0.667338C3.38798 0.668067 3.406 0.669324 3.42652 0.671244C3.46789 0.675122 3.51946 0.682534 3.58082 0.694031C3.70383 0.717096 3.86627 0.758689 4.06715 0.834005C4.42303 0.967459 4.89931 1.20553 5.49619 1.62762C7.152 1.34736 8.84753 1.3474 10.5033 1.62762C11.1003 1.20545 11.5765 0.967484 11.9324 0.834005C12.1333 0.758654 12.2957 0.717109 12.4187 0.694031C12.4801 0.682514 12.5316 0.675129 12.573 0.671244C12.5937 0.669303 12.6121 0.668069 12.6277 0.667338C12.6354 0.666976 12.6427 0.666839 12.6492 0.666687H12.6655C12.6659 0.666687 12.6667 0.666687 12.6668 1.1745V0.666687C12.9741 0.66675 13.2418 0.877132 13.3145 1.1758C13.5029 1.94945 13.523 2.75293 13.3764 3.53322C13.8377 4.28504 14.0553 5.1578 13.9988 6.04234C13.9785 8.3794 12.2807 9.8166 10.4116 10.2175C10.6383 10.7873 10.7282 11.4076 10.6668 12.028V14.6667C10.6668 15.0348 10.3682 15.3333 10.0001 15.3334C9.6319 15.3334 9.33343 15.0349 9.33343 14.6667Z" fill="currentColor"/>
<path d="M1.33329 10C1.91009 10 2.33504 10.2961 2.63798 10.5579C2.78894 10.6884 2.93911 10.8377 3.06702 10.9616C3.20218 11.0925 3.32595 11.2092 3.45569 11.3132C3.70799 11.5153 3.96129 11.6517 4.27665 11.6934C4.59726 11.7356 5.05642 11.6892 5.72978 11.3906C6.06635 11.2414 6.46008 11.3933 6.60933 11.7298C6.75856 12.0664 6.60671 12.4601 6.27014 12.6094C5.4402 12.9774 4.73073 13.0977 4.10282 13.015C3.46977 12.9316 2.99414 12.6513 2.62235 12.3535C2.44013 12.2075 2.27818 12.0532 2.13928 11.9186C1.9931 11.777 1.88031 11.6657 1.76624 11.5671C1.53897 11.3706 1.42304 11.3333 1.33329 11.3333C0.965103 11.3333 0.666626 11.0349 0.666626 10.6667C0.666626 10.2985 0.965103 10 1.33329 10Z" fill="currentColor"/>
</svg>
