<svg viewBox="0 0 16 16" fill="none" xmlns="http://www.w3.org/2000/svg">
<g clip-path="url(#clip0_3_123)">
<path d="M14 8.00002C14 4.68631 11.3137 2.00002 8.00002 2.00002C4.68631 2.00002 2.00002 4.68631 2.00002 8.00002C2.00002 11.3137 4.68631 14 8.00002 14C11.3137 14 14 11.3137 14 8.00002ZM15.3334 8.00002C15.3334 12.0501 12.0501 15.3334 8.00002 15.3334C3.94993 15.3334 0.666687 12.0501 0.666687 8.00002C0.666687 3.94993 3.94993 0.666687 8.00002 0.666687C12.0501 0.666687 15.3334 3.94993 15.3334 8.00002Z" fill="currentColor"/>
<path d="M10 8.00002C10 5.93412 9.28929 3.93923 8.00002 2.34377C6.71075 3.93923 6.00002 5.93412 6.00002 8.00002C6.00002 10.0658 6.71095 12.0602 8.00002 13.6556C9.28909 12.0602 10 10.0658 10 8.00002ZM11.3334 8.00002C11.3334 10.6533 10.3129 13.205 8.48309 15.1263C8.35726 15.2584 8.18247 15.3334 8.00002 15.3334C7.81757 15.3334 7.64278 15.2584 7.51695 15.1263C5.68718 13.205 4.66669 10.6533 4.66669 8.00002C4.66669 5.34677 5.68718 2.79509 7.51695 0.873718C7.64278 0.741598 7.81757 0.666687 8.00002 0.666687C8.18247 0.666687 8.35726 0.741598 8.48309 0.873718C10.3129 2.79509 11.3334 5.34677 11.3334 8.00002Z" fill="currentColor"/>
<path d="M14.6667 7.33331C15.0349 7.33331 15.3334 7.63179 15.3334 7.99998C15.3334 8.36817 15.0349 8.66665 14.6667 8.66665H1.33335C0.965164 8.66665 0.666687 8.36817 0.666687 7.99998C0.666687 7.63179 0.965164 7.33331 1.33335 7.33331H14.6667Z" fill="currentColor"/>
</g>
<defs>
<clipPath id="clip0_3_123">
<rect width="16" height="16" fill="white"/>
</clipPath>
</defs>
</svg>
