<svg viewBox="0 0 16 16" fill="none" xmlns="http://www.w3.org/2000/svg">
<path d="M8 7.3335C8.36819 7.3335 8.66667 7.63197 8.66667 8.00016C8.66667 8.36835 8.36819 8.66683 8 8.66683H2.66667C2.29848 8.66683 2 8.36835 2 8.00016C2 7.63197 2.29848 7.3335 2.66667 7.3335H8Z" fill="currentColor"/>
<path d="M2 12.0002V4.00016C2 3.63197 2.29848 3.3335 2.66667 3.3335C3.03486 3.3335 3.33333 3.63197 3.33333 4.00016V12.0002C3.33333 12.3684 3.03486 12.6668 2.66667 12.6668C2.29848 12.6668 2 12.3684 2 12.0002Z" fill="currentColor"/>
<path d="M7.3335 12.0002V4.00016C7.3335 3.63197 7.63197 3.3335 8.00016 3.3335C8.36835 3.3335 8.66683 3.63197 8.66683 4.00016V12.0002C8.66683 12.3684 8.36835 12.6668 8.00016 12.6668C7.63197 12.6668 7.3335 12.3684 7.3335 12.0002Z" fill="currentColor"/>
<path d="M12.6666 12V7.91212L11.703 8.5547C11.3967 8.75894 10.9828 8.67616 10.7785 8.36981C10.5743 8.06345 10.6571 7.64956 10.9634 7.44533L12.9634 6.11199C13.168 5.97564 13.4309 5.96286 13.6477 6.07879C13.8645 6.1948 13.9999 6.42082 13.9999 6.66668V12C13.9999 12.3682 13.7014 12.6667 13.3332 12.6667C12.965 12.6667 12.6666 12.3682 12.6666 12Z" fill="currentColor"/>
</svg>
