<svg viewBox="0 0 16 16" fill="none" xmlns="http://www.w3.org/2000/svg">
<path d="M8 7.3335C8.36819 7.3335 8.66667 7.63197 8.66667 8.00016C8.66667 8.36835 8.36819 8.66683 8 8.66683H2.66667C2.29848 8.66683 2 8.36835 2 8.00016C2 7.63197 2.29848 7.3335 2.66667 7.3335H8Z" fill="currentColor"/>
<path d="M2 12.0002V4.00016C2 3.63197 2.29848 3.3335 2.66667 3.3335C3.03486 3.3335 3.33333 3.63197 3.33333 4.00016V12.0002C3.33333 12.3684 3.03486 12.6668 2.66667 12.6668C2.29848 12.6668 2 12.3684 2 12.0002Z" fill="currentColor"/>
<path d="M7.3335 12.0002V4.00016C7.3335 3.63197 7.63197 3.3335 8.00016 3.3335C8.36835 3.3335 8.66683 3.63197 8.66683 4.00016V12.0002C8.66683 12.3684 8.36835 12.6668 8.00016 12.6668C7.63197 12.6668 7.3335 12.3684 7.3335 12.0002Z" fill="currentColor"/>
<path d="M13.3332 7.99996C13.3332 7.82591 13.2223 7.63768 12.9556 7.54879C12.6966 7.46254 12.2548 7.47508 11.7329 7.8665C11.4384 8.08727 11.0208 8.02753 10.8 7.73303C10.5791 7.43848 10.6389 7.021 10.9334 6.80009C11.7448 6.19161 12.6364 6.03679 13.3774 6.28381C14.1107 6.52826 14.6665 7.17403 14.6665 7.99996C14.6665 8.67722 14.4297 9.17462 14.0643 9.5553C13.741 9.89207 13.309 10.1345 13.02 10.3151C12.6952 10.518 12.4579 10.6907 12.2889 10.9231C12.2114 11.0297 12.1397 11.1612 12.0871 11.3333H13.9998C14.368 11.3333 14.6665 11.6318 14.6665 12C14.6664 12.3681 14.368 12.6666 13.9998 12.6666H11.3332C10.965 12.6666 10.6666 12.3681 10.6665 12C10.6665 11.2122 10.8671 10.6119 11.2108 10.1393C11.5417 9.68421 11.9711 9.39789 12.313 9.1842C12.6905 8.94824 12.9254 8.816 13.1021 8.63212C13.2365 8.49202 13.3331 8.32251 13.3332 7.99996Z" fill="currentColor"/>
</svg>
