<svg viewBox="0 0 16 16" fill="none" xmlns="http://www.w3.org/2000/svg">
<path d="M13.3335 3.3335C13.3335 2.96531 13.035 2.66683 12.6668 2.66683H3.3335C2.96531 2.66683 2.66683 2.96531 2.66683 3.3335V12.6668C2.66683 13.035 2.96531 13.3335 3.3335 13.3335H12.6668C13.035 13.3335 13.3335 13.035 13.3335 12.6668V3.3335ZM14.6668 12.6668C14.6668 13.7714 13.7714 14.6668 12.6668 14.6668H3.3335C2.22893 14.6668 1.3335 13.7714 1.3335 12.6668V3.3335C1.3335 2.22893 2.22893 1.3335 3.3335 1.3335H12.6668C13.7714 1.3335 14.6668 2.22893 14.6668 3.3335V12.6668Z" fill="currentColor"/>
<path d="M6.66667 6C6.66667 5.63181 6.36819 5.33333 6 5.33333C5.63181 5.33333 5.33333 5.63181 5.33333 6C5.33333 6.36819 5.63181 6.66667 6 6.66667C6.36819 6.66667 6.66667 6.36819 6.66667 6ZM8 6C8 7.10457 7.10457 8 6 8C4.89543 8 4 7.10457 4 6C4 4.89543 4.89543 4 6 4C7.10457 4 8 4.89543 8 6Z" fill="currentColor"/>
<path d="M11.0001 6.88574C11.5303 6.88574 12.0391 7.09616 12.4141 7.47103V7.47168L14.4714 9.52897C14.7317 9.78933 14.7317 10.2114 14.4714 10.4717C14.2111 10.7319 13.789 10.7319 13.5287 10.4717L11.4714 8.41439C11.3464 8.28941 11.1768 8.21908 11.0001 8.21908C10.8233 8.21908 10.6537 8.28941 10.5287 8.41439L4.47142 14.4717C4.21109 14.7319 3.78903 14.7319 3.52871 14.4717C3.26839 14.2114 3.26846 13.7893 3.52871 13.529L9.586 7.47168V7.47103C9.96104 7.09616 10.4698 6.88574 11.0001 6.88574Z" fill="currentColor"/>
</svg>
