<svg viewBox="0 0 20 20" fill="none" xmlns="http://www.w3.org/2000/svg">
<path d="M16.6665 4.16669C16.6665 3.70645 16.2934 3.33335 15.8332 3.33335H4.1665C3.70627 3.33335 3.33317 3.70645 3.33317 4.16669V15.8334C3.33317 16.2936 3.70627 16.6667 4.1665 16.6667H15.8332C16.2934 16.6667 16.6665 16.2936 16.6665 15.8334V4.16669ZM18.3332 15.8334C18.3332 17.2141 17.2139 18.3334 15.8332 18.3334H4.1665C2.78579 18.3334 1.6665 17.2141 1.6665 15.8334V4.16669C1.6665 2.78598 2.78579 1.66669 4.1665 1.66669H15.8332C17.2139 1.66669 18.3332 2.78598 18.3332 4.16669V15.8334Z" fill="currentColor"/>
<path d="M8.33333 7.5C8.33333 7.03976 7.96024 6.66667 7.5 6.66667C7.03976 6.66667 6.66667 7.03976 6.66667 7.5C6.66667 7.96024 7.03976 8.33333 7.5 8.33333C7.96024 8.33333 8.33333 7.96024 8.33333 7.5ZM10 7.5C10 8.88071 8.88071 10 7.5 10C6.11929 10 5 8.88071 5 7.5C5 6.11929 6.11929 5 7.5 5C8.88071 5 10 6.11929 10 7.5Z" fill="currentColor"/>
<path d="M13.7502 8.60699C14.413 8.60699 15.049 8.87001 15.5178 9.3386V9.33942L18.0894 11.911C18.4147 12.2365 18.4148 12.764 18.0894 13.0894C17.764 13.4147 17.2364 13.4147 16.911 13.0894L14.3394 10.5178C14.1831 10.3616 13.9712 10.2737 13.7502 10.2737C13.5292 10.2737 13.3173 10.3616 13.161 10.5178L5.58939 18.0894C5.26399 18.4147 4.73641 18.4147 4.41101 18.0894C4.08561 17.764 4.0857 17.2365 4.41101 16.911L11.9826 9.33942V9.3386C12.4514 8.87001 13.0874 8.60699 13.7502 8.60699Z" fill="currentColor"/>
</svg>
