<svg viewBox="0 0 32 32" fill="none" xmlns="http://www.w3.org/2000/svg">
<path d="M26.6665 6.6665C26.6665 5.93012 26.0695 5.33317 25.3332 5.33317H6.6665C5.93012 5.33317 5.33317 5.93012 5.33317 6.6665V25.3332C5.33317 26.0695 5.93012 26.6665 6.6665 26.6665H25.3332C26.0695 26.6665 26.6665 26.0695 26.6665 25.3332V6.6665ZM29.3332 25.3332C29.3332 27.5423 27.5423 29.3332 25.3332 29.3332H6.6665C4.45736 29.3332 2.6665 27.5423 2.6665 25.3332V6.6665C2.6665 4.45736 4.45736 2.6665 6.6665 2.6665H25.3332C27.5423 2.6665 29.3332 4.45736 29.3332 6.6665V25.3332Z" fill="currentColor"/>
<path d="M13.3333 12C13.3333 11.2636 12.7364 10.6667 12 10.6667C11.2636 10.6667 10.6667 11.2636 10.6667 12C10.6667 12.7364 11.2636 13.3333 12 13.3333C12.7364 13.3333 13.3333 12.7364 13.3333 12ZM16 12C16 14.2091 14.2091 16 12 16C9.79086 16 8 14.2091 8 12C8 9.79086 9.79086 8 12 8C14.2091 8 16 9.79086 16 12Z" fill="currentColor"/>
<path d="M22.0001 13.771C23.0607 13.771 24.0782 14.1918 24.8283 14.9416V14.9429L28.9428 19.0575C29.4633 19.5782 29.4635 20.4222 28.9428 20.9429C28.4222 21.4633 27.5781 21.4633 27.0574 20.9429L22.9428 16.8283C22.6928 16.5783 22.3537 16.4377 22.0001 16.4377C21.6466 16.4377 21.3075 16.5783 21.0574 16.8283L8.94283 28.9429C8.42218 29.4633 7.57806 29.4633 7.05742 28.9429C6.53678 28.4222 6.53692 27.5782 7.05742 27.0575L19.172 14.9429V14.9416C19.9221 14.1918 20.9396 13.771 22.0001 13.771Z" fill="currentColor"/>
</svg>
