<svg viewBox="0 0 20 20" fill="none" xmlns="http://www.w3.org/2000/svg">
<path d="M15.8333 2.5C16.2936 2.5 16.6667 2.8731 16.6667 3.33333C16.6667 3.79357 16.2936 4.16667 15.8333 4.16667H8.33333C7.8731 4.16667 7.5 3.79357 7.5 3.33333C7.5 2.8731 7.8731 2.5 8.33333 2.5H15.8333Z" fill="currentColor"/>
<path d="M11.6668 15.8333C12.1271 15.8333 12.5002 16.2064 12.5002 16.6666C12.5002 17.1269 12.1271 17.5 11.6668 17.5H4.16683C3.70659 17.5 3.3335 17.1269 3.3335 16.6666C3.3335 16.2064 3.70659 15.8333 4.16683 15.8333H11.6668Z" fill="currentColor"/>
<path d="M11.7198 3.04038C11.8815 2.60962 12.3623 2.39134 12.7932 2.55291C13.2239 2.71461 13.4422 3.19547 13.2807 3.62632L8.28065 16.9597C8.11895 17.3904 7.63809 17.6087 7.20725 17.4471C6.77649 17.2854 6.55821 16.8046 6.71978 16.3737L11.7198 3.04038Z" fill="currentColor"/>
</svg>
