<svg viewBox="0 0 13 13" fill="none" xmlns="http://www.w3.org/2000/svg">
<path d="M0.543457 3.78886C0.543482 3.57888 0.604438 3.37339 0.719076 3.19747C0.832691 3.0232 0.994253 2.88519 1.18404 2.80021L5.82576 0.688029L5.90564 0.654175C6.09464 0.579907 6.2961 0.541535 6.49967 0.541504C6.73231 0.541504 6.96245 0.591509 7.17411 0.688029L11.8269 2.80603C12.0167 2.89101 12.1778 3.02848 12.2914 3.20276C12.4061 3.37868 12.4669 3.58415 12.467 3.79415C12.467 4.00424 12.4061 4.21007 12.2914 4.38607C12.1777 4.56048 12.0159 4.69783 11.8259 4.7828L11.8264 4.78332L7.1794 6.89498C6.96778 6.99149 6.73809 7.04201 6.50549 7.04203C6.30181 7.04203 6.10002 7.00367 5.91093 6.92936L5.83105 6.89551L1.18351 4.77751C0.994043 4.6925 0.832545 4.55482 0.719076 4.38078C0.604335 4.20478 0.543457 3.99895 0.543457 3.78886ZM1.63314 3.7915L6.28015 5.9095C6.35071 5.94168 6.42794 5.9587 6.50549 5.9587C6.583 5.95868 6.65978 5.94167 6.73031 5.9095L11.3784 3.79679L11.3837 3.79415L11.3778 3.79203L6.72502 1.67403L6.72449 1.6735C6.65399 1.64139 6.57714 1.62484 6.49967 1.62484C6.4223 1.62487 6.34581 1.64143 6.27539 1.6735L6.27486 1.67403L1.62679 3.78886L1.63314 3.7915Z" fill="currentColor"/>
<path d="M11.9123 5.95827C12.2114 5.95593 12.4558 6.19657 12.4582 6.4957C12.4598 6.70592 12.4003 6.91225 12.2868 7.08921C12.1733 7.26608 12.0108 7.40611 11.8192 7.49229L7.17375 9.60394L7.17269 9.60447C6.96216 9.69976 6.73358 9.74888 6.50249 9.74888C6.27137 9.74887 6.04282 9.69978 5.83228 9.60447L5.83175 9.60394L1.1731 7.48594L1.16993 7.48435C0.98188 7.39733 0.822675 7.25812 0.711307 7.08339C0.599979 6.90868 0.540995 6.70552 0.541507 6.49835C0.54238 6.19931 0.78569 5.95753 1.08476 5.95827C1.38371 5.95914 1.6249 6.20205 1.62431 6.50099L6.27873 8.61741H6.27926C6.3494 8.64914 6.4255 8.66553 6.50249 8.66554C6.57929 8.66554 6.65517 8.64899 6.72518 8.61741L11.3727 6.50523L11.3748 6.50417C11.3725 6.20504 11.6131 5.96063 11.9123 5.95827Z" fill="currentColor"/>
<path d="M11.9123 8.66676C12.2114 8.66443 12.4558 8.90507 12.4582 9.2042C12.4598 9.41441 12.4003 9.62074 12.2868 9.79771C12.1733 9.97457 12.0108 10.1146 11.8192 10.2008L7.17375 12.3124L7.17269 12.313C6.96216 12.4083 6.73358 12.4574 6.50249 12.4574C6.27137 12.4574 6.04282 12.4083 5.83228 12.313L5.83175 12.3124L1.1731 10.1944L1.16993 10.1928C0.98188 10.1058 0.822675 9.96662 0.711307 9.79189C0.599979 9.61718 0.540995 9.41401 0.541507 9.20684C0.54238 8.90781 0.78569 8.66602 1.08476 8.66676C1.38371 8.66764 1.6249 8.91055 1.62431 9.20949L6.27873 11.3259H6.27926C6.3494 11.3576 6.4255 11.374 6.50249 11.374C6.57929 11.374 6.65517 11.3575 6.72518 11.3259L11.3727 9.21372L11.3748 9.21266C11.3725 8.91354 11.6131 8.66913 11.9123 8.66676Z" fill="currentColor"/>
</svg>
