<svg viewBox="0 0 16 16" fill="none" xmlns="http://www.w3.org/2000/svg">
<path d="M14.3086 4.10419C14.6191 3.90651 15.0314 3.99812 15.2291 4.30861C15.4268 4.61914 15.3352 5.03141 15.0247 5.22919L9.03058 9.04689C9.02301 9.05171 9.01555 9.05671 9.00779 9.06122C8.70276 9.23839 8.35598 9.33135 8.00323 9.3314C7.65046 9.3314 7.30374 9.23837 6.99868 9.06122C6.99089 9.0567 6.98283 9.05173 6.97524 9.04689L0.975239 5.22919C0.664685 5.0315 0.573167 4.61921 0.770812 4.30861C0.968501 3.99806 1.38079 3.90654 1.69138 4.10419L7.67185 7.91018C7.77267 7.96789 7.88702 7.99807 8.00323 7.99807C8.11913 7.99802 8.23272 7.96762 8.33331 7.91018L14.3086 4.10419Z" fill="currentColor"/>
<path d="M14 4C14 3.63181 13.7015 3.33333 13.3334 3.33333H2.66669C2.2985 3.33333 2.00002 3.63181 2.00002 4V12C2.00002 12.3682 2.2985 12.6667 2.66669 12.6667H13.3334C13.7015 12.6667 14 12.3682 14 12V4ZM15.3334 12C15.3334 13.1046 14.4379 14 13.3334 14H2.66669C1.56212 14 0.666687 13.1046 0.666687 12V4C0.666687 2.89543 1.56212 2 2.66669 2H13.3334C14.4379 2 15.3334 2.89543 15.3334 4V12Z" fill="currentColor"/>
</svg>
