<svg viewBox="0 0 16 16" fill="none" xmlns="http://www.w3.org/2000/svg">
<path d="M8.81679 0.68181C9.01204 0.645703 9.21305 0.66822 9.39427 0.746263L9.47044 0.783372L9.54335 0.826341C9.68511 0.918418 9.801 1.04505 9.88059 1.19418L9.9177 1.27035L9.94765 1.34978C10.0098 1.53681 10.0152 1.73862 9.96263 1.92986C9.96025 1.93848 9.95818 1.94737 9.95546 1.9559L8.67552 5.96892L8.66445 6.00017H13.3331C13.5847 5.99968 13.8315 6.07015 14.0447 6.20394C14.2583 6.33808 14.4292 6.53041 14.5381 6.75798C14.647 6.98555 14.6895 7.23922 14.6599 7.48975C14.6303 7.74032 14.5298 7.9774 14.3708 8.17335C14.3584 8.18863 14.3455 8.20349 14.3318 8.21762L7.73151 15.0177L7.73085 15.0171C7.58504 15.173 7.3939 15.2796 7.18333 15.3185C6.96029 15.3598 6.7297 15.324 6.52968 15.217C6.32968 15.11 6.17191 14.9377 6.08242 14.7293C5.99302 14.521 5.97737 14.2884 6.0375 14.0698L6.04466 14.0438L7.3246 10.0308L7.33567 10.0002H2.6664V9.99952C2.41499 9.99989 2.16844 9.92942 1.95546 9.79574C1.74192 9.66166 1.57086 9.46978 1.46197 9.24236C1.35306 9.01476 1.31062 8.76051 1.34023 8.50993C1.36987 8.25944 1.47038 8.02223 1.62929 7.82634C1.64167 7.81111 1.65468 7.79615 1.66835 7.78207L8.26861 0.982591C8.41443 0.826562 8.60615 0.720778 8.81679 0.68181ZM2.66835 8.66683H7.33307C7.54811 8.66643 7.76012 8.71798 7.95091 8.81723C8.14219 8.91675 8.30686 9.06085 8.43007 9.2378C8.55331 9.41479 8.63163 9.61952 8.65859 9.8335C8.68414 10.0366 8.6603 10.2419 8.59348 10.4351L8.59544 10.4357L7.75104 13.0829L13.3318 7.3335H8.6664V7.33285C8.45161 7.33315 8.23979 7.28223 8.04921 7.18311C7.85788 7.08358 7.69329 6.93888 7.57005 6.76189C7.44689 6.58497 7.36851 6.3807 7.34153 6.16684C7.31591 5.96349 7.33899 5.75736 7.40598 5.56397H7.40468L8.24843 2.91618L2.66835 8.66683Z" fill="currentColor"/>
</svg>
