<svg viewBox="0 0 22 22" fill="none" xmlns="http://www.w3.org/2000/svg">
<path d="M18.3333 11.917C18.3333 11.4107 17.9228 11.0003 17.4166 11.0003H4.58325C4.07699 11.0003 3.66659 11.4107 3.66659 11.917V18.3337C3.66659 18.8399 4.07699 19.2503 4.58325 19.2503H17.4166C17.9228 19.2503 18.3333 18.8399 18.3333 18.3337V11.917ZM20.1666 18.3337C20.1666 19.8524 18.9354 21.0837 17.4166 21.0837H4.58325C3.06447 21.0837 1.83325 19.8524 1.83325 18.3337V11.917C1.83325 10.3982 3.06447 9.16699 4.58325 9.16699H17.4166C18.9354 9.16699 20.1666 10.3982 20.1666 11.917V18.3337Z" fill="currentColor"/>
<path d="M14.6667 10.0837V6.41699C14.6667 5.44453 14.2801 4.51218 13.5924 3.82454C12.9048 3.13691 11.9725 2.75033 11 2.75033C10.0275 2.75033 9.09519 3.13691 8.40755 3.82454C7.71992 4.51218 7.33333 5.44453 7.33333 6.41699V10.0837C7.33333 10.5899 6.92293 11.0003 6.41667 11.0003C5.91041 11.0003 5.5 10.5899 5.5 10.0837V6.41699C5.5 4.9583 6.07988 3.55977 7.11133 2.52832C8.14278 1.49687 9.54131 0.916992 11 0.916992C12.4587 0.916992 13.8572 1.49687 14.8887 2.52832C15.9201 3.55977 16.5 4.9583 16.5 6.41699V10.0837C16.5 10.5899 16.0896 11.0003 15.5833 11.0003C15.0771 11.0003 14.6667 10.5899 14.6667 10.0837Z" fill="currentColor"/>
</svg>
