<svg viewBox="0 0 16 16" fill="none" xmlns="http://www.w3.org/2000/svg">
<path d="M13.3333 8.66669C13.3333 8.2985 13.0348 8.00002 12.6666 8.00002H3.33331C2.96512 8.00002 2.66665 8.2985 2.66665 8.66669V13.3334C2.66665 13.7015 2.96512 14 3.33331 14H12.6666C13.0348 14 13.3333 13.7015 13.3333 13.3334V8.66669ZM14.6666 13.3334C14.6666 14.4379 13.7712 15.3334 12.6666 15.3334H3.33331C2.22874 15.3334 1.33331 14.4379 1.33331 13.3334V8.66669C1.33331 7.56212 2.22874 6.66669 3.33331 6.66669H12.6666C13.7712 6.66669 14.6666 7.56212 14.6666 8.66669V13.3334Z" fill="currentColor"/>
<path d="M10.6667 7.33335V4.66669C10.6667 3.95944 10.3855 3.28137 9.88542 2.78127C9.38532 2.28117 8.70724 2.00002 8 2.00002C7.29276 2.00002 6.61468 2.28117 6.11458 2.78127C5.61449 3.28137 5.33333 3.95944 5.33333 4.66669V7.33335C5.33333 7.70154 5.03486 8.00002 4.66667 8.00002C4.29848 8.00002 4 7.70154 4 7.33335V4.66669C4 3.60582 4.42173 2.58871 5.17188 1.83856C5.92202 1.08842 6.93913 0.666687 8 0.666687C9.06087 0.666687 10.078 1.08842 10.8281 1.83856C11.5783 2.58871 12 3.60582 12 4.66669V7.33335C12 7.70154 11.7015 8.00002 11.3333 8.00002C10.9651 8.00002 10.6667 7.70154 10.6667 7.33335Z" fill="currentColor"/>
</svg>
