<svg viewBox="0 0 20 20" fill="none" xmlns="http://www.w3.org/2000/svg">
<path d="M0.836182 5.82894C0.83622 5.5059 0.929999 5.18975 1.10636 4.91911C1.28116 4.651 1.52971 4.43868 1.8217 4.30794L8.96281 1.05843L9.08569 1.00635C9.37646 0.892089 9.6864 0.833055 9.99959 0.833008C10.3575 0.833008 10.7116 0.909938 11.0372 1.05843L18.1954 4.31689C18.4874 4.44763 18.7351 4.65913 18.9099 4.92725C19.0864 5.1979 19.18 5.514 19.1801 5.83708C19.1801 6.1603 19.0864 6.47696 18.9099 6.74772C18.735 7.01605 18.4861 7.22736 18.1938 7.35807L18.1946 7.35889L11.0453 10.6076C10.7198 10.7561 10.3664 10.8338 10.0085 10.8338C9.69518 10.8338 9.38474 10.7748 9.09383 10.6605L8.97095 10.6084L1.82088 7.34993C1.52939 7.21915 1.28093 7.00734 1.10636 6.73958C0.92984 6.46882 0.836182 6.15216 0.836182 5.82894ZM2.51261 5.83301L9.66187 9.09147C9.77042 9.14098 9.88924 9.16715 10.0085 9.16715C10.1278 9.16712 10.2459 9.14096 10.3544 9.09147L17.5053 5.84115L17.5134 5.83708L17.5045 5.83382L10.3463 2.57536L10.3455 2.57454C10.237 2.52514 10.1188 2.49967 9.99959 2.49967C9.88055 2.49973 9.76287 2.52521 9.65454 2.57454L9.65373 2.57536L2.50285 5.82894L2.51261 5.83301Z" fill="currentColor"/>
<path d="M18.3269 9.16665C18.7871 9.16305 19.1631 9.53328 19.1667 9.99347C19.1693 10.3169 19.0776 10.6343 18.903 10.9066C18.7285 11.1787 18.4785 11.3941 18.1836 11.5267L11.0368 14.7754L11.0352 14.7762C10.7113 14.9228 10.3597 14.9984 10.0041 14.9984C9.64855 14.9983 9.29694 14.9228 8.97303 14.7762L8.97221 14.7754L1.80506 11.5169L1.80018 11.5145C1.51088 11.3806 1.26595 11.1664 1.09461 10.8976C0.923336 10.6288 0.83259 10.3163 0.833379 9.99754C0.834722 9.53748 1.20904 9.16551 1.66915 9.16665C2.12907 9.16799 2.50014 9.5417 2.49923 10.0016L9.65988 13.2576H9.66069C9.7686 13.3065 9.88568 13.3317 10.0041 13.3317C10.1223 13.3317 10.239 13.3062 10.3467 13.2576L17.4968 10.0081L17.5 10.0065C17.4965 9.54631 17.8667 9.17029 18.3269 9.16665Z" fill="currentColor"/>
<path d="M18.3269 13.3333C18.7871 13.3297 19.1631 13.6999 19.1667 14.1601C19.1693 14.4835 19.0776 14.8009 18.903 15.0732C18.7285 15.3453 18.4785 15.5607 18.1836 15.6933L11.0368 18.942L11.0352 18.9428C10.7113 19.0894 10.3597 19.165 10.0041 19.165C9.64855 19.165 9.29694 19.0895 8.97303 18.9428L8.97221 18.942L1.80506 15.6835L1.80018 15.6811C1.51088 15.5472 1.26595 15.3331 1.09461 15.0642C0.923336 14.7954 0.83259 14.4829 0.833379 14.1642C0.834722 13.7041 1.20904 13.3321 1.66915 13.3333C2.12907 13.3346 2.50014 13.7083 2.49923 14.1682L9.65988 17.4243H9.66069C9.7686 17.4731 9.88568 17.4983 10.0041 17.4983C10.1223 17.4983 10.239 17.4728 10.3467 17.4243L17.4968 14.1747L17.5 14.1731C17.4965 13.7129 17.8667 13.3369 18.3269 13.3333Z" fill="currentColor"/>
</svg>
