<svg viewBox="0 0 16 16" fill="none" xmlns="http://www.w3.org/2000/svg">
<path d="M6.6665 8.00001C6.6665 7.26363 7.26346 6.66667 7.99984 6.66667C8.73622 6.66667 9.33317 7.26363 9.33317 8.00001C9.33317 8.73638 8.73622 9.33334 7.99984 9.33334C7.26346 9.33334 6.6665 8.73638 6.6665 8.00001Z" fill="currentColor"/>
<path d="M11.3335 8.00001C11.3335 7.26363 11.9304 6.66667 12.6668 6.66667C13.4032 6.66667 14.0002 7.26363 14.0002 8.00001C14.0002 8.73638 13.4032 9.33334 12.6668 9.33334C11.9304 9.33334 11.3335 8.73638 11.3335 8.00001Z" fill="currentColor"/>
<path d="M2 8.00001C2 7.26363 2.59695 6.66667 3.33333 6.66667C4.06971 6.66667 4.66667 7.26363 4.66667 8.00001C4.66667 8.73638 4.06971 9.33334 3.33333 9.33334C2.59695 9.33334 2 8.73638 2 8.00001Z" fill="currentColor"/>
</svg>
