<svg viewBox="0 0 16 16" fill="none" xmlns="http://www.w3.org/2000/svg">
<path d="M8.57708 13.6666C8.76116 13.3478 9.16905 13.2385 9.48788 13.4225C9.80672 13.6066 9.9161 14.0145 9.73203 14.3333C9.55655 14.6372 9.30413 14.8896 9.00025 15.0651C8.69631 15.2405 8.35121 15.3333 8.00025 15.3333C7.64923 15.3333 7.30427 15.2406 7.00025 15.0651C6.69623 14.8896 6.44338 14.6373 6.26783 14.3333C6.08379 14.0145 6.19315 13.6066 6.51197 13.4225C6.83081 13.2385 7.23869 13.3478 7.42278 13.6666C7.48129 13.7679 7.56561 13.8523 7.66692 13.9108C7.7682 13.9692 7.88334 14 8.00025 14C8.11718 13.9999 8.23233 13.9692 8.33359 13.9108C8.43482 13.8523 8.51859 13.7679 8.57708 13.6666Z" fill="currentColor"/>
<path d="M11.3333 5.33329C11.3333 4.44935 10.9823 3.60162 10.3574 2.97652C9.73223 2.3514 8.88399 1.99996 7.99993 1.99996C7.11594 2 6.26824 2.35144 5.64316 2.97652C5.01809 3.60163 4.6666 4.44928 4.6666 5.33329C4.6666 6.9028 4.4206 7.99876 4.02207 8.84241C3.62843 9.67568 3.10606 10.2137 2.66725 10.6666H13.3333C12.8935 10.2134 12.3719 9.67513 11.9784 8.84241C11.5798 7.99861 11.3333 6.90272 11.3333 5.33329ZM12.6666 5.33329C12.6666 6.76308 12.8905 7.65255 13.1835 8.27275C13.4038 8.73903 13.6753 9.08148 13.9843 9.41663L14.3053 9.75387L14.3196 9.76949C14.4935 9.96061 14.6083 10.198 14.6497 10.4531C14.691 10.708 14.6577 10.9695 14.5533 11.2057C14.4488 11.4419 14.2776 11.6429 14.0611 11.7838C13.8716 11.9072 13.6541 11.9805 13.4296 11.9967L13.3333 12H2.6666C2.40819 11.9998 2.15515 11.9244 1.93873 11.7832C1.72231 11.6419 1.55145 11.4409 1.4472 11.2044C1.34298 10.9679 1.30977 10.7061 1.3515 10.4511C1.39324 10.1962 1.50816 9.95902 1.68222 9.76819L1.6959 9.75321C2.13886 9.29589 2.52266 8.89444 2.81634 8.27275C3.1093 7.65256 3.33327 6.76311 3.33327 5.33329C3.33327 4.09562 3.82528 2.90833 4.70045 2.03316C5.57556 1.15818 6.76243 0.666669 7.99993 0.666626C9.23757 0.666626 10.4249 1.15804 11.3001 2.03316C12.1752 2.90833 12.6666 4.09562 12.6666 5.33329Z" fill="currentColor"/>
</svg>
