<svg viewBox="0 0 22 22" fill="none" xmlns="http://www.w3.org/2000/svg">
<path d="M2.75 18.3333V3.66663C2.75 2.93728 3.03994 2.23801 3.55566 1.72229C4.07139 1.20657 4.77066 0.916626 5.5 0.916626H12.8333V0.917521C13.2439 0.917051 13.6509 0.99669 14.0302 1.15385C14.4094 1.311 14.7537 1.54178 15.0435 1.8324L18.3306 5.11951L18.4372 5.23051C18.6792 5.49616 18.8738 5.80201 19.0119 6.13464C19.1695 6.51444 19.2505 6.9221 19.25 7.33329V18.3333C19.25 19.0626 18.9601 19.7619 18.4443 20.2776C17.9286 20.7934 17.2293 21.0833 16.5 21.0833H5.5C4.77065 21.0833 4.07139 20.7934 3.55566 20.2776C3.03994 19.7619 2.75 19.0626 2.75 18.3333ZM4.58333 18.3333C4.58333 18.5764 4.67998 18.8095 4.85189 18.9814C5.0238 19.1533 5.25689 19.25 5.5 19.25H16.5C16.7431 19.25 16.9762 19.1533 17.1481 18.9814C17.32 18.8095 17.4167 18.5764 17.4167 18.3333V7.3315C17.4169 7.16228 17.3839 6.99459 17.3191 6.83826C17.2541 6.68168 17.1582 6.53883 17.038 6.41931L13.7464 3.12773C13.627 3.00786 13.4847 2.91232 13.3284 2.84753C13.1721 2.78278 13.0043 2.74973 12.8351 2.74996H5.5C5.25689 2.74996 5.0238 2.84661 4.85189 3.01851C4.67998 3.19042 4.58333 3.42351 4.58333 3.66663V18.3333Z" fill="currentColor"/>
<path d="M11.9165 6.41663V1.83329C11.9165 1.32703 12.3269 0.916626 12.8332 0.916626C13.3394 0.916626 13.7498 1.32703 13.7498 1.83329V6.41663H18.3332C18.8394 6.41663 19.2498 6.82703 19.2498 7.33329C19.2498 7.83955 18.8394 8.24996 18.3332 8.24996H13.7498C13.2636 8.24996 12.7974 8.05667 12.4536 7.71285C12.1098 7.36903 11.9165 6.90286 11.9165 6.41663Z" fill="currentColor"/>
<path d="M9.1665 7.33337C9.67277 7.33337 10.0832 7.74378 10.0832 8.25004C10.0832 8.7563 9.67277 9.16671 9.1665 9.16671H7.33317C6.82691 9.16671 6.4165 8.7563 6.4165 8.25004C6.4165 7.74378 6.82691 7.33337 7.33317 7.33337H9.1665Z" fill="currentColor"/>
<path d="M14.6665 11C15.1728 11 15.5832 11.4104 15.5832 11.9167C15.5832 12.4229 15.1728 12.8333 14.6665 12.8333H7.33317C6.82691 12.8333 6.4165 12.4229 6.4165 11.9167C6.4165 11.4104 6.82691 11 7.33317 11H14.6665Z" fill="currentColor"/>
<path d="M14.6665 14.6666C15.1728 14.6666 15.5832 15.077 15.5832 15.5833C15.5832 16.0896 15.1728 16.5 14.6665 16.5H7.33317C6.82691 16.5 6.4165 16.0896 6.4165 15.5833C6.4165 15.077 6.82691 14.6666 7.33317 14.6666H14.6665Z" fill="currentColor"/>
</svg>
