<svg viewBox="0 0 36 36" fill="none" xmlns="http://www.w3.org/2000/svg">
<path d="M4.5 30V6C4.5 4.80653 4.97445 3.66227 5.81836 2.81836C6.66227 1.97445 7.80653 1.5 9 1.5H21V1.50146C21.6719 1.5007 22.3378 1.63101 22.9585 1.88818C23.579 2.14533 24.1424 2.52297 24.6167 2.99854L29.9956 8.37744L30.1699 8.55908C30.566 8.99378 30.8844 9.49427 31.1104 10.0386C31.3683 10.6601 31.5008 11.3271 31.5 12V30C31.5 31.1935 31.0256 32.3377 30.1816 33.1816C29.3377 34.0256 28.1935 34.5 27 34.5H9C7.80653 34.5 6.66227 34.0256 5.81836 33.1816C4.97445 32.3377 4.5 31.1935 4.5 30ZM7.5 30C7.5 30.3978 7.65815 30.7792 7.93945 31.0605C8.22076 31.3419 8.60218 31.5 9 31.5H27C27.3978 31.5 27.7792 31.3419 28.0605 31.0605C28.3419 30.7792 28.5 30.3978 28.5 30V11.9971C28.5004 11.7202 28.4464 11.4458 28.3403 11.1899C28.234 10.9337 28.0771 10.7 27.8804 10.5044L22.4941 5.11816C22.2987 4.92202 22.0658 4.76569 21.8101 4.65967C21.5543 4.55371 21.2797 4.49962 21.0029 4.5H9C8.60218 4.5 8.22076 4.65815 7.93945 4.93945C7.65815 5.22076 7.5 5.60218 7.5 6V30Z" fill="currentColor"/>
<path d="M19.5 10.5V3C19.5 2.17157 20.1716 1.5 21 1.5C21.8284 1.5 22.5 2.17157 22.5 3V10.5H30C30.8284 10.5 31.5 11.1716 31.5 12C31.5 12.8284 30.8284 13.5 30 13.5H22.5C21.7043 13.5 20.9415 13.1837 20.3789 12.6211C19.8163 12.0585 19.5 11.2957 19.5 10.5Z" fill="currentColor"/>
<path d="M20.6893 17.6893C21.2751 17.1036 22.2246 17.1036 22.8104 17.6893C23.3962 18.2751 23.3962 19.2246 22.8104 19.8104L15.3104 27.3104C14.7246 27.8962 13.7751 27.8962 13.1893 27.3104C12.6036 26.7246 12.6036 25.7751 13.1893 25.1893L20.6893 17.6893Z" fill="currentColor"/>
<path d="M13.1893 17.6893C13.7751 17.1036 14.7246 17.1036 15.3104 17.6893L22.8104 25.1893C23.3962 25.7751 23.3962 26.7246 22.8104 27.3104C22.2246 27.8962 21.2751 27.8962 20.6893 27.3104L13.1893 19.8104C12.6036 19.2246 12.6036 18.2751 13.1893 17.6893Z" fill="currentColor"/>
</svg>
