<svg viewBox="0 0 16 16" fill="none" xmlns="http://www.w3.org/2000/svg">
<g clip-path="url(#clip0_3_713)">
<path d="M14.0001 7.33329C14.0001 5.94283 13.3871 4.59283 12.2683 3.5859C11.1472 2.5769 9.6127 1.99996 8.00008 1.99996C6.40878 1.99996 4.88246 2.6319 3.75724 3.75712C2.63202 4.88234 2.00008 6.40866 2.00008 7.99996C2.00008 9.59126 2.63202 11.1176 3.75724 12.2428C4.88246 13.368 6.40878 14 8.00008 14H8.16675C8.25961 14 8.35078 13.9739 8.42977 13.9251C8.50866 13.8763 8.57252 13.8063 8.61401 13.7233C8.65545 13.6403 8.67313 13.5474 8.66479 13.455C8.65645 13.3626 8.6222 13.2741 8.56649 13.1998L8.36662 12.9336C8.16234 12.6612 8.03783 12.3371 8.00724 11.998C7.97668 11.659 8.04127 11.3181 8.19344 11.0136C8.3457 10.7091 8.58025 10.453 8.86987 10.274C9.15948 10.0951 9.49298 9.99996 9.83342 9.99996H11.3334C12.0407 9.99996 12.7187 9.71881 13.2188 9.21871C13.7189 8.71861 14.0001 8.04054 14.0001 7.33329ZM15.3334 7.33329C15.3334 8.39416 14.9117 9.41127 14.1615 10.1614C13.4114 10.9116 12.3943 11.3333 11.3334 11.3333H9.83342C9.74056 11.3333 9.64938 11.3593 9.57039 11.4082C9.4915 11.457 9.42764 11.527 9.38615 11.61C9.34472 11.693 9.32704 11.7858 9.33537 11.8782C9.34371 11.9707 9.37796 12.0591 9.43368 12.1334L9.63354 12.3997C9.83782 12.6721 9.96234 12.9962 9.99292 13.3352C10.0235 13.6742 9.95889 14.0152 9.80672 14.3196C9.65446 14.6241 9.41991 14.8802 9.13029 15.0592C8.84069 15.2382 8.50718 15.3333 8.16675 15.3333H8.00008C6.05516 15.3333 4.1898 14.5608 2.81453 13.1855C1.43927 11.8102 0.666748 9.94488 0.666748 7.99996C0.666748 6.05504 1.43927 4.18968 2.81453 2.81441C4.1898 1.43915 6.05516 0.666626 8.00008 0.666626C9.92366 0.666626 11.7809 1.3536 13.1602 2.59501C14.5419 3.83851 15.3334 5.54117 15.3334 7.33329Z" fill="currentColor"/>
<path d="M9 4.00004C8.81591 4.00004 8.66667 4.14928 8.66667 4.33337C8.66667 4.51747 8.81591 4.66671 9 4.66671C9.18409 4.66671 9.33333 4.51747 9.33333 4.33337C9.33333 4.14928 9.1841 4.00004 9 4.00004ZM10 4.33337C10 4.88566 9.55228 5.33337 9 5.33337C8.44772 5.33337 8 4.88566 8 4.33337C8 3.78109 8.44772 3.33337 9 3.33337C9.55228 3.33337 10 3.78109 10 4.33337Z" fill="currentColor"/>
<path d="M11.6667 6.66667C11.4827 6.66667 11.3334 6.81591 11.3334 7C11.3334 7.1841 11.4827 7.33333 11.6667 7.33333C11.8508 7.33333 12.0001 7.18409 12.0001 7C12.0001 6.81591 11.8508 6.66667 11.6667 6.66667ZM12.6667 7C12.6667 7.55228 12.219 8 11.6667 8C11.1145 8 10.6667 7.55228 10.6667 7C10.6667 6.44772 11.1145 6 11.6667 6C12.219 6 12.6667 6.44772 12.6667 7Z" fill="currentColor"/>
<path d="M4.33325 8.00004C4.14916 8.00004 3.99992 8.14928 3.99992 8.33337C3.99992 8.51747 4.14916 8.66671 4.33325 8.66671C4.51735 8.66671 4.66659 8.51747 4.66659 8.33337C4.66659 8.14928 4.51735 8.00004 4.33325 8.00004ZM5.33325 8.33337C5.33325 8.88566 4.88554 9.33337 4.33325 9.33337C3.78097 9.33337 3.33325 8.88566 3.33325 8.33337C3.33325 7.78109 3.78097 7.33337 4.33325 7.33337C4.88554 7.33337 5.33325 7.78109 5.33325 8.33337Z" fill="currentColor"/>
<path d="M5.66675 4.66667C5.48265 4.66667 5.33341 4.81591 5.33341 5C5.33341 5.1841 5.48265 5.33333 5.66675 5.33333C5.85084 5.33333 6.00008 5.18409 6.00008 5C6.00008 4.81591 5.85084 4.66667 5.66675 4.66667ZM6.66675 5C6.66675 5.55228 6.21903 6 5.66675 6C5.11446 6 4.66675 5.55228 4.66675 5C4.66675 4.44772 5.11446 4 5.66675 4C6.21903 4 6.66675 4.44772 6.66675 5Z" fill="currentColor"/>
</g>
<defs>
<clipPath id="clip0_3_713">
<rect width="16" height="16" fill="white"/>
</clipPath>
</defs>
</svg>
