<svg viewBox="0 0 16 16" fill="none" xmlns="http://www.w3.org/2000/svg">
<path d="M1.3335 12.6668V3.3335C1.3335 2.80306 1.54436 2.29451 1.91943 1.91943C2.29451 1.54436 2.80306 1.3335 3.3335 1.3335H8.00016C8.36835 1.3335 8.66683 1.63197 8.66683 2.00016C8.66683 2.36835 8.36835 2.66683 8.00016 2.66683H3.3335C3.15668 2.66683 2.98717 2.73712 2.86214 2.86214C2.73712 2.98717 2.66683 3.15668 2.66683 3.3335V12.6668C2.66683 12.8436 2.73712 13.0132 2.86214 13.1382C2.98717 13.2632 3.15669 13.3335 3.3335 13.3335H12.6668C12.8436 13.3335 13.0132 13.2632 13.1382 13.1382C13.2632 13.0132 13.3335 12.8436 13.3335 12.6668V8.00016C13.3335 7.63197 13.632 7.3335 14.0002 7.3335C14.3684 7.3335 14.6668 7.63197 14.6668 8.00016V12.6668C14.6668 13.1973 14.456 13.7058 14.0809 14.0809C13.7058 14.456 13.1973 14.6668 12.6668 14.6668H3.3335C2.80306 14.6668 2.29451 14.456 1.91943 14.0809C1.54436 13.7058 1.3335 13.1973 1.3335 12.6668Z" fill="currentColor"/>
<path d="M13.9975 2.74967C13.9975 2.55147 13.919 2.36119 13.7788 2.22103C13.6386 2.0809 13.4484 2.00228 13.2502 2.00228C13.0519 2.0023 12.8617 2.08088 12.7215 2.22103L6.71304 8.23079H6.71239C6.6333 8.30975 6.5753 8.40744 6.54377 8.51465L6.15445 9.84473L7.48583 9.45605L7.5646 9.42741C7.64112 9.39419 7.71097 9.34674 7.77033 9.28744L13.7788 3.27832L13.8283 3.22363C13.9373 3.09059 13.9975 2.92321 13.9975 2.74967ZM15.3309 2.74967C15.3309 3.30154 15.1117 3.83079 14.7215 4.22103L8.71304 10.2308C8.47559 10.468 8.18173 10.6413 7.85953 10.7354L7.86018 10.736L5.94481 11.2959H5.94416C5.77211 11.3461 5.58977 11.3488 5.41617 11.3044C5.24251 11.2599 5.08395 11.1694 4.95718 11.0426C4.83054 10.916 4.73996 10.7578 4.69546 10.5843C4.65097 10.4107 4.65373 10.2278 4.70393 10.0557H4.70458L5.26447 8.1403V8.13965C5.34719 7.85791 5.49068 7.59789 5.68439 7.37858L5.77033 7.28744L11.7788 1.27832L11.8537 1.20736C12.2354 0.861738 12.7328 0.668961 13.2502 0.668945C13.802 0.668945 14.3313 0.888146 14.7215 1.27832C15.1117 1.66853 15.3308 2.19784 15.3309 2.74967Z" fill="currentColor"/>
</svg>
