<svg viewBox="0 0 16 16" fill="none" xmlns="http://www.w3.org/2000/svg">
<path d="M12 14V12.6667C12 12.1363 11.7892 11.6277 11.4141 11.2526C11.039 10.8776 10.5305 10.6667 10 10.6667H6.00002C5.46959 10.6667 4.96103 10.8776 4.58596 11.2526C4.21089 11.6277 4.00002 12.1363 4.00002 12.6667V14C4.00002 14.3682 3.70154 14.6667 3.33335 14.6667C2.96516 14.6667 2.66669 14.3682 2.66669 14V12.6667C2.66669 11.7827 3.01813 10.9351 3.64325 10.3099C4.26837 9.68482 5.11597 9.33337 6.00002 9.33337H10C10.8841 9.33337 11.7317 9.68482 12.3568 10.3099C12.9819 10.9351 13.3334 11.7827 13.3334 12.6667V14C13.3334 14.3682 13.0349 14.6667 12.6667 14.6667C12.2985 14.6667 12 14.3682 12 14Z" fill="currentColor"/>
<path d="M10 4.66671C10 3.56214 9.10459 2.66671 8.00002 2.66671C6.89545 2.66671 6.00002 3.56214 6.00002 4.66671C6.00002 5.77128 6.89545 6.66671 8.00002 6.66671C9.10459 6.66671 10 5.77128 10 4.66671ZM11.3334 4.66671C11.3334 6.50766 9.84097 8.00004 8.00002 8.00004C6.15907 8.00004 4.66669 6.50766 4.66669 4.66671C4.66669 2.82576 6.15907 1.33337 8.00002 1.33337C9.84097 1.33337 11.3334 2.82576 11.3334 4.66671Z" fill="currentColor"/>
</svg>
