<svg viewBox="0 0 16 16" fill="none" xmlns="http://www.w3.org/2000/svg">
<path d="M7.33325 14.6666V11.3333C7.33325 10.9651 7.63173 10.6666 7.99992 10.6666C8.36811 10.6666 8.66659 10.9651 8.66659 11.3333V14.6666C8.66659 15.0348 8.36811 15.3333 7.99992 15.3333C7.63173 15.3333 7.33325 15.0348 7.33325 14.6666Z" fill="currentColor"/>
<path d="M9.33325 5.33329V1.33329C9.33325 0.965103 9.63173 0.666626 9.99992 0.666626C10.3681 0.666626 10.6666 0.965103 10.6666 1.33329V5.33329C10.6666 5.70148 10.3681 5.99996 9.99992 5.99996C9.63173 5.99996 9.33325 5.70148 9.33325 5.33329Z" fill="currentColor"/>
<path d="M4.66659 5.99996V8.66663C4.66659 9.19706 4.87745 9.70562 5.25252 10.0807C5.6276 10.4558 6.13615 10.6666 6.66658 10.6666H9.33325C9.86368 10.6666 10.3722 10.4558 10.7473 10.0807C11.1224 9.70562 11.3333 9.19706 11.3333 8.66663V5.99996H4.66659ZM12.6666 8.66663C12.6666 9.55068 12.3151 10.3983 11.69 11.0234C11.0649 11.6485 10.2173 12 9.33325 12H6.66658C5.78253 12 4.93494 11.6485 4.30981 11.0234C3.68469 10.3983 3.33325 9.55068 3.33325 8.66663V5.99996C3.33325 5.64634 3.47383 5.3073 3.72388 5.05725C3.97393 4.8072 4.31296 4.66663 4.66659 4.66663H11.3333C11.6869 4.66663 12.0259 4.8072 12.276 5.05725C12.526 5.3073 12.6666 5.64634 12.6666 5.99996V8.66663Z" fill="currentColor"/>
<path d="M5.33325 5.33329V1.33329C5.33325 0.965103 5.63173 0.666626 5.99992 0.666626C6.36811 0.666626 6.66659 0.965103 6.66659 1.33329V5.33329C6.66659 5.70148 6.36811 5.99996 5.99992 5.99996C5.63173 5.99996 5.33325 5.70148 5.33325 5.33329Z" fill="currentColor"/>
</svg>
