<svg viewBox="0 0 16 16" fill="none" xmlns="http://www.w3.org/2000/svg">
<path d="M13.3332 10.0002V3.3335C13.3332 3.15669 13.2629 2.98717 13.1379 2.86214C13.0128 2.73712 12.8433 2.66683 12.6665 2.66683H10.6665C10.4897 2.66683 10.3202 2.73712 10.1951 2.86214C10.0701 2.98717 9.99984 3.15669 9.99984 3.3335V7.3335C9.99984 7.51031 10.0701 7.67983 10.1951 7.80485C10.3046 7.91428 10.4481 7.98178 10.6007 7.99691L10.798 8.00667C11.1033 8.03693 11.3904 8.17193 11.6092 8.39079C11.8593 8.64084 11.9998 8.97988 11.9998 9.3335V10.0002C11.9998 10.5306 11.789 11.0392 11.4139 11.4142C11.0388 11.7893 10.5303 12.0002 9.99984 12.0002V13.3335C10.8839 13.3335 11.7315 12.9821 12.3566 12.3569C12.9817 11.7318 13.3332 10.8842 13.3332 10.0002ZM14.6665 10.0002C14.6665 11.2378 14.1751 12.4251 13.3 13.3003C12.4248 14.1755 11.2375 14.6668 9.99984 14.6668C9.64622 14.6668 9.30718 14.5263 9.05713 14.2762C8.80708 14.0262 8.6665 13.6871 8.6665 13.3335V12.0002C8.6665 11.6465 8.80708 11.3075 9.05713 11.0575C9.27599 10.8386 9.563 10.7036 9.86833 10.6733L10.0656 10.6636C10.2183 10.6484 10.3618 10.5809 10.4712 10.4715C10.5962 10.3465 10.6665 10.177 10.6665 10.0002V9.3335C10.1361 9.3335 9.62751 9.12263 9.25244 8.74756C8.87737 8.37249 8.6665 7.86393 8.6665 7.3335V3.3335C8.6665 2.80306 8.87737 2.29451 9.25244 1.91943C9.62751 1.54436 10.1361 1.3335 10.6665 1.3335H12.6665C13.1969 1.3335 13.7055 1.54436 14.0806 1.91943C14.4556 2.29451 14.6665 2.80306 14.6665 3.3335V10.0002Z" fill="currentColor"/>
<path d="M6.00016 10.0002V3.3335C6.00016 3.15669 5.92987 2.98717 5.80485 2.86214C5.67983 2.73712 5.51031 2.66683 5.3335 2.66683H3.3335C3.15668 2.66683 2.98717 2.73712 2.86214 2.86214C2.73712 2.98717 2.66683 3.15668 2.66683 3.3335V7.3335C2.66683 7.51031 2.73712 7.67983 2.86214 7.80485C2.97157 7.91428 3.11507 7.98178 3.26774 7.99691L3.46501 8.00667C3.77034 8.03693 4.05735 8.17193 4.2762 8.39079C4.52625 8.64084 4.66683 8.97987 4.66683 9.3335V10.0002C4.66683 10.5306 4.45596 11.0392 4.08089 11.4142C3.70582 11.7893 3.19726 12.0002 2.66683 12.0002V13.3335C3.55088 13.3335 4.39848 12.9821 5.0236 12.3569C5.64872 11.7318 6.00016 10.8842 6.00016 10.0002ZM7.3335 10.0002C7.3335 11.2378 6.84213 12.4251 5.96696 13.3003C5.09179 14.1755 3.90451 14.6668 2.66683 14.6668C2.31321 14.6668 1.97417 14.5263 1.72412 14.2762C1.47407 14.0262 1.3335 13.6871 1.3335 13.3335V12.0002C1.3335 11.6465 1.47407 11.3075 1.72412 11.0575C1.94298 10.8386 2.22999 10.7036 2.53532 10.6733L2.73258 10.6636C2.88525 10.6484 3.02875 10.5809 3.13818 10.4715C3.26321 10.3465 3.3335 10.177 3.3335 10.0002V9.3335C2.80306 9.3335 2.29451 9.12263 1.91943 8.74756C1.54436 8.37249 1.3335 7.86393 1.3335 7.3335V3.3335C1.3335 2.80306 1.54436 2.29451 1.91943 1.91943C2.29451 1.54436 2.80306 1.3335 3.3335 1.3335H5.3335C5.86393 1.3335 6.37249 1.54436 6.74756 1.91943C7.12263 2.29451 7.3335 2.80306 7.3335 3.3335V10.0002Z" fill="currentColor"/>
</svg>
