<svg viewBox="0 0 14 14" fill="none" xmlns="http://www.w3.org/2000/svg">
<path d="M1.1665 6.99984C1.1665 5.45274 1.78096 3.96888 2.87492 2.87492C3.96888 1.78096 5.45274 1.1665 6.99984 1.1665H7.00212L7.30461 1.17505C8.71244 1.24833 10.0549 1.79409 11.1145 2.72396L11.3441 2.93587L12.6623 4.25407C12.8901 4.48187 12.8901 4.85113 12.6623 5.07894C12.4345 5.30674 12.0652 5.30674 11.8374 5.07894L10.526 3.76758L10.3449 3.60067C9.42098 2.78993 8.23281 2.33793 6.99813 2.33317C5.76107 2.33362 4.57455 2.82502 3.69979 3.69979C2.82462 4.57496 2.33317 5.76216 2.33317 6.99984C2.33317 7.322 2.072 7.58317 1.74984 7.58317C1.42767 7.58317 1.1665 7.322 1.1665 6.99984Z" fill="currentColor"/>
<path d="M11.6667 1.74984C11.6667 1.42767 11.9278 1.1665 12.25 1.1665C12.5722 1.1665 12.8333 1.42767 12.8333 1.74984V4.6665C12.8333 4.98867 12.5722 5.24984 12.25 5.24984H9.33333C9.01117 5.24984 8.75 4.98867 8.75 4.6665C8.75 4.34434 9.01117 4.08317 9.33333 4.08317H11.6667V1.74984Z" fill="currentColor"/>
<path d="M11.6665 6.99984C11.6665 6.67767 11.9276 6.4165 12.2498 6.4165C12.572 6.4165 12.8331 6.67767 12.8331 6.99984C12.8331 8.54693 12.2187 10.0308 11.1247 11.1248C10.0307 12.2187 8.54689 12.8332 6.99979 12.8332H6.99751C5.48035 12.8274 4.02037 12.272 2.88513 11.2757L2.65555 11.0638L1.33736 9.74561C1.10955 9.5178 1.10955 9.14854 1.33736 8.92074C1.56516 8.69293 1.93442 8.69293 2.16223 8.92074L3.47359 10.2321L3.65474 10.399C4.57851 11.2096 5.76646 11.661 7.00093 11.6659C8.2382 11.6656 9.42494 11.1748 10.2998 10.2999C11.175 9.42472 11.6665 8.23751 11.6665 6.99984Z" fill="currentColor"/>
<path d="M1.1665 12.25V9.33333C1.1665 9.01117 1.42767 8.75 1.74984 8.75H4.6665C4.98867 8.75 5.24984 9.01117 5.24984 9.33333C5.24984 9.6555 4.98867 9.91667 4.6665 9.91667H2.33317V12.25C2.33317 12.5722 2.072 12.8333 1.74984 12.8333C1.42767 12.8333 1.1665 12.5722 1.1665 12.25Z" fill="currentColor"/>
</svg>
