<svg viewBox="0 0 14 14" fill="none" xmlns="http://www.w3.org/2000/svg">
<path d="M11.6665 2.91666C11.6665 2.27233 11.1442 1.74999 10.4998 1.74999C9.8555 1.74999 9.33317 2.27233 9.33317 2.91666C9.33317 3.56099 9.8555 4.08333 10.4998 4.08333C11.1442 4.08333 11.6665 3.56099 11.6665 2.91666ZM12.8332 2.91666C12.8332 4.20533 11.7885 5.24999 10.4998 5.24999C9.21117 5.24999 8.1665 4.20533 8.1665 2.91666C8.1665 1.628 9.21117 0.583328 10.4998 0.583328C11.7885 0.583328 12.8332 1.628 12.8332 2.91666Z" fill="currentColor"/>
<path d="M4.6665 7.00001C4.6665 6.35567 4.14417 5.83334 3.49984 5.83334C2.8555 5.83334 2.33317 6.35567 2.33317 7.00001C2.33317 7.64434 2.8555 8.16667 3.49984 8.16667C4.14417 8.16667 4.6665 7.64434 4.6665 7.00001ZM5.83317 7.00001C5.83317 8.28867 4.7885 9.33334 3.49984 9.33334C2.21117 9.33334 1.1665 8.28867 1.1665 7.00001C1.1665 5.71134 2.21117 4.66667 3.49984 4.66667C4.7885 4.66667 5.83317 5.71134 5.83317 7.00001Z" fill="currentColor"/>
<path d="M11.6665 11.0833C11.6665 10.439 11.1442 9.91667 10.4998 9.91667C9.8555 9.91667 9.33317 10.439 9.33317 11.0833C9.33317 11.7277 9.8555 12.25 10.4998 12.25C11.1442 12.25 11.6665 11.7277 11.6665 11.0833ZM12.8332 11.0833C12.8332 12.372 11.7885 13.4167 10.4998 13.4167C9.21117 13.4167 8.1665 12.372 8.1665 11.0833C8.1665 9.79467 9.21117 8.75 10.4998 8.75C11.7885 8.75 12.8332 9.79467 12.8332 11.0833Z" fill="currentColor"/>
<path d="M4.50666 7.5869C4.6689 7.30864 5.02645 7.21451 5.30476 7.37669L9.2884 9.69863C9.56672 9.86081 9.66129 10.2178 9.49918 10.4962C9.33697 10.7745 8.97944 10.8686 8.70108 10.7064L4.71687 8.38499C4.43861 8.22275 4.34449 7.86521 4.50666 7.5869Z" fill="currentColor"/>
<path d="M8.69554 3.29393C8.97378 3.13161 9.3307 3.22534 9.49307 3.50356C9.65539 3.78175 9.56153 4.13866 9.28343 4.30109L5.30491 6.62303C5.02676 6.7853 4.66982 6.69142 4.50739 6.41339C4.34501 6.13514 4.43877 5.77768 4.71702 5.6153L8.69554 3.29393Z" fill="currentColor"/>
</svg>
