<svg viewBox="0 0 16 16" fill="none" xmlns="http://www.w3.org/2000/svg">
<path d="M12.6667 3.99972C11.1203 3.99972 9.31374 3.10865 8.07357 2.02641C8.05309 2.00902 8.02688 1.99972 8 1.99972C7.97301 1.99972 7.94695 2.00953 7.92643 2.02706L7.92578 2.02641C6.69288 3.10134 4.88005 3.99972 3.33333 3.99972V8.66638C3.33333 10.1568 3.84707 11.2405 4.65755 12.0707C5.4863 12.9195 6.6557 13.5331 7.9974 13.9965C8.00225 13.9981 8.00756 13.9992 8.01237 14.001C9.34909 13.5345 10.5152 12.9207 11.3424 12.072C12.1526 11.2407 12.6667 10.1569 12.6667 8.66638V3.99972ZM14 8.66638C14 10.5091 13.3473 11.9259 12.2975 13.003C11.2659 14.0614 9.88029 14.7628 8.44596 15.2627L8.44076 15.2647C8.15534 15.3614 7.84584 15.3579 7.5625 15.2562V15.2569C7.55858 15.2555 7.5547 15.2537 7.55078 15.2523C7.54976 15.2519 7.54855 15.2521 7.54753 15.2517V15.251C6.11469 14.7547 4.73304 14.0565 3.70378 13.0023C2.65279 11.9259 2 10.5091 2 8.66638V3.99972C2.00008 3.6462 2.14065 3.30698 2.39062 3.05701C2.64066 2.80705 2.97978 2.66638 3.33333 2.66638C4.45091 2.66638 5.96769 1.96749 7.05469 1.01794L7.06055 1.01339C7.32249 0.789603 7.65548 0.666382 8 0.666382C8.34452 0.666382 8.67751 0.789603 8.93945 1.01339L8.94531 1.01794C10.0383 1.97355 11.5486 2.66638 12.6667 2.66638C13.0202 2.66638 13.3593 2.80705 13.6094 3.05701C13.8594 3.30699 13.9999 3.6462 14 3.99972V8.66638Z" fill="currentColor"/>
</svg>
