<svg viewBox="0 0 16 16" fill="none" xmlns="http://www.w3.org/2000/svg">
<path d="M8.1414 0.67627C8.28166 0.695898 8.41669 0.744905 8.53789 0.82015C8.6591 0.895404 8.76276 0.994803 8.84258 1.11182L8.91419 1.23421V1.23486L10.4546 4.354C10.5082 4.46242 10.5872 4.55627 10.685 4.62744C10.783 4.69869 10.8972 4.74527 11.0171 4.76286H11.0164L14.4604 5.26676H14.4598C14.601 5.28725 14.7356 5.33726 14.8556 5.4126L14.9708 5.49593L15.0724 5.59489C15.1356 5.6653 15.1885 5.74423 15.2299 5.82926L15.2833 5.96077L15.3178 6.0988C15.3425 6.23825 15.3377 6.38216 15.3035 6.52067C15.2579 6.70532 15.1617 6.87356 15.0255 7.00635L15.0249 7.007L12.5346 9.43213C12.4479 9.51672 12.3827 9.62095 12.3452 9.73617C12.3077 9.85135 12.2988 9.97418 12.3191 10.0936L12.9064 13.5174L12.9214 13.6593C12.9263 13.8015 12.9015 13.9438 12.8478 14.0767C12.7762 14.2539 12.6561 14.4077 12.5014 14.52C12.3468 14.6323 12.1635 14.6988 11.9728 14.7121C11.7821 14.7253 11.5914 14.6847 11.4227 14.5949V14.5942L8.34713 12.9777C8.23997 12.9215 8.12049 12.8924 7.99948 12.8924C7.87861 12.8924 7.75953 12.9216 7.65247 12.9777L4.575 14.5949L4.57565 14.5955C4.40698 14.6848 4.21652 14.725 4.02617 14.7114C3.8359 14.6979 3.65312 14.6315 3.49883 14.5194C3.3445 14.4071 3.22468 14.2536 3.15312 14.0767C3.09943 13.9438 3.0747 13.8015 3.07956 13.6593L3.09388 13.5181L3.68112 10.0942C3.70158 9.97476 3.69253 9.8521 3.65508 9.73682C3.62696 9.65034 3.58348 9.56967 3.52682 9.49919L3.46562 9.43213L0.974738 7.00765L0.975389 7.007C0.839013 6.87459 0.74214 6.70707 0.696092 6.52262C0.649851 6.33728 0.656026 6.14248 0.714972 5.96077L0.768358 5.82861C0.830704 5.7007 0.919667 5.58684 1.02943 5.49463C1.17565 5.3718 1.35337 5.29224 1.54245 5.26546L4.9832 4.76286L5.07174 4.74398C5.15905 4.72025 5.24162 4.68091 5.31523 4.62744C5.41321 4.55625 5.49268 4.46258 5.54635 4.354L7.08541 1.23486L7.08607 1.23421C7.17035 1.06393 7.30034 0.920422 7.46172 0.82015C7.62324 0.719868 7.81 0.666504 8.00013 0.666504L8.1414 0.67627ZM11.5932 13.7492V13.7459L11.5919 13.7407L11.5932 13.7492ZM12.0464 13.4165L12.0496 13.4178C12.0481 13.417 12.0466 13.416 12.045 13.4152L12.0464 13.4165ZM3.95195 13.4172L3.9539 13.4165L3.95586 13.4152C3.95459 13.4158 3.95321 13.4165 3.95195 13.4172ZM6.74166 4.94385V4.9445C6.59234 5.24671 6.37179 5.50807 6.09909 5.70622C5.82639 5.9043 5.50942 6.03325 5.17591 6.08187L2.3582 6.49333L4.39596 8.47705C4.63771 8.71253 4.81892 9.00312 4.92331 9.32406C5.02768 9.64505 5.05194 9.98682 4.99492 10.3195L4.51445 13.1216L7.03203 11.798V11.7974C7.33041 11.6407 7.66246 11.5591 7.99948 11.5591C8.33657 11.5591 8.66912 11.6407 8.96758 11.7974L11.4858 13.1216L11.0047 10.3195V10.3188C10.9479 9.98629 10.9732 9.64488 11.0776 9.32406C11.182 9.00323 11.3627 8.71251 11.6043 8.47705L13.6401 6.49398L10.8237 6.08187H10.823C10.4899 6.03294 10.1735 5.90421 9.90117 5.70622C9.62877 5.50811 9.40848 5.24646 9.25924 4.9445H9.25859L7.99948 2.39437L6.74166 4.94385Z" fill="currentColor"/>
</svg>
