<svg viewBox="0 0 16 16" fill="none" xmlns="http://www.w3.org/2000/svg">
<path d="M7.3335 13.3333V2.66667C7.3335 2.29848 7.63197 2 8.00016 2C8.36835 2 8.66683 2.29848 8.66683 2.66667V13.3333C8.66683 13.7015 8.36835 14 8.00016 14C7.63197 14 7.3335 13.7015 7.3335 13.3333Z" fill="currentColor"/>
<path d="M12.6667 4.66667V3.33333H3.33333V4.66667C3.33333 5.03486 3.03486 5.33333 2.66667 5.33333C2.29848 5.33333 2 5.03486 2 4.66667V3.33333C2 2.97971 2.14058 2.64067 2.39062 2.39062C2.64067 2.14058 2.97971 2 3.33333 2H12.6667C13.0203 2 13.3593 2.14058 13.6094 2.39062C13.8594 2.64067 14 2.97971 14 3.33333V4.66667C14 5.03486 13.7015 5.33333 13.3333 5.33333C12.9651 5.33333 12.6667 5.03486 12.6667 4.66667Z" fill="currentColor"/>
<path d="M10.0002 12.6665C10.3684 12.6665 10.6668 12.965 10.6668 13.3332C10.6668 13.7014 10.3684 13.9998 10.0002 13.9998H6.00016C5.63197 13.9998 5.3335 13.7014 5.3335 13.3332C5.3335 12.965 5.63197 12.6665 6.00016 12.6665H10.0002Z" fill="currentColor"/>
</svg>
