<svg viewBox="0 0 12 12" fill="none" xmlns="http://www.w3.org/2000/svg">
<g clip-path="url(#clip0_51_2018)">
<path d="M10.5069 0.540903C10.6217 0.500872 10.7441 0.489304 10.8639 0.507212L10.9161 0.516977L10.9674 0.530161C11.0691 0.560551 11.1631 0.612451 11.2433 0.682016L11.2823 0.718149L11.3185 0.756723C11.3879 0.836852 11.4394 0.930982 11.4698 1.0326L11.4835 1.08436L11.4933 1.13661C11.5111 1.25605 11.4989 1.37809 11.4591 1.49256L11.4596 1.49305L8.20957 10.9931V10.9935C8.15993 11.1382 8.06723 11.2644 7.94394 11.3549C7.82056 11.4454 7.67212 11.496 7.51914 11.4999C7.36625 11.5038 7.21578 11.4608 7.08798 11.3768C6.96013 11.2927 6.86079 11.1712 6.8038 11.0292L5.21396 7.06385L5.19297 7.01795C5.16954 6.97337 5.13937 6.93259 5.10361 6.89686C5.05584 6.84918 4.99879 6.8116 4.93613 6.78651V6.78602L0.970797 5.19618C0.828851 5.13922 0.707716 5.04024 0.623629 4.91249C0.539534 4.78463 0.496664 4.63383 0.500582 4.48084C0.50452 4.3279 0.555091 4.17988 0.645602 4.05653L0.680758 4.01161C0.767534 3.91048 0.880231 3.83435 1.00693 3.7909V3.79041L10.5069 0.540415V0.540903ZM1.96787 4.51844L5.30722 5.8578H5.30771C5.49573 5.93307 5.66682 6.04577 5.81015 6.18885C5.95342 6.33187 6.06609 6.50253 6.1417 6.69032L6.14218 6.69129L7.48105 10.0316L10.3482 1.65174L1.96787 4.51844Z" fill="currentColor"/>
<path d="M10.5737 0.720132C10.769 0.524969 11.0855 0.524891 11.2807 0.720132C11.4758 0.915369 11.4758 1.23193 11.2807 1.42716L5.81051 6.89689C5.61527 7.092 5.29871 7.092 5.10348 6.89689C4.90822 6.70162 4.90821 6.38462 5.10348 6.18937L10.5737 0.720132Z" fill="currentColor"/>
</g>
<defs>
<clipPath id="clip0_51_2018">
<rect width="12" height="12" fill="white"/>
</clipPath>
</defs>
</svg>
