<svg viewBox="0 0 14 14" fill="none" xmlns="http://www.w3.org/2000/svg">
<path d="M5.25 9.91658V6.41659C5.25 6.09442 5.51117 5.83325 5.83333 5.83325C6.1555 5.83325 6.41667 6.09442 6.41667 6.41659V9.91658C6.41667 10.2388 6.1555 10.4999 5.83333 10.4999C5.51117 10.4999 5.25 10.2388 5.25 9.91658Z" fill="currentColor"/>
<path d="M7.5835 9.91658V6.41659C7.5835 6.09442 7.84466 5.83325 8.16683 5.83325C8.489 5.83325 8.75016 6.09442 8.75016 6.41659V9.91658C8.75016 10.2388 8.489 10.4999 8.16683 10.4999C7.84466 10.4999 7.5835 10.2388 7.5835 9.91658Z" fill="currentColor"/>
<path d="M2.3335 11.6667V3.50008C2.3335 3.17792 2.59466 2.91675 2.91683 2.91675C3.239 2.91675 3.50016 3.17792 3.50016 3.50008V11.6667C3.50016 11.8215 3.56166 11.9698 3.67106 12.0792C3.78046 12.1886 3.92879 12.2501 4.0835 12.2501H9.91683C10.0715 12.2501 10.2199 12.1886 10.3293 12.0792C10.4387 11.9698 10.5002 11.8215 10.5002 11.6667V3.50008C10.5002 3.17792 10.7613 2.91675 11.0835 2.91675C11.4057 2.91675 11.6668 3.17792 11.6668 3.50008V11.6667C11.6668 12.1309 11.4823 12.5759 11.1541 12.9041C10.8259 13.2322 10.381 13.4167 9.91683 13.4167H4.0835C3.61937 13.4167 3.17438 13.2322 2.84619 12.9041C2.518 12.5759 2.3335 12.1309 2.3335 11.6667Z" fill="currentColor"/>
<path d="M12.2498 2.91675C12.572 2.91675 12.8332 3.17792 12.8332 3.50008C12.8332 3.82225 12.572 4.08341 12.2498 4.08341H1.74984C1.42767 4.08341 1.1665 3.82225 1.1665 3.50008C1.1665 3.17792 1.42767 2.91675 1.74984 2.91675H12.2498Z" fill="currentColor"/>
<path d="M8.75016 3.49992V2.33325C8.75016 2.17854 8.68866 2.03021 8.57926 1.92082C8.46987 1.81142 8.32154 1.74992 8.16683 1.74992H5.8335C5.67879 1.74992 5.53046 1.81142 5.42106 1.92082C5.31166 2.03021 5.25016 2.17854 5.25016 2.33325V3.49992C5.25016 3.82208 4.989 4.08325 4.66683 4.08325C4.34466 4.08325 4.0835 3.82208 4.0835 3.49992V2.33325C4.0835 1.86912 4.268 1.42414 4.59619 1.09595C4.92438 0.767759 5.36937 0.583252 5.8335 0.583252H8.16683C8.63096 0.583252 9.07595 0.767759 9.40413 1.09595C9.73232 1.42414 9.91683 1.86912 9.91683 2.33325V3.49992C9.91683 3.82208 9.65566 4.08325 9.3335 4.08325C9.01133 4.08325 8.75016 3.82208 8.75016 3.49992Z" fill="currentColor"/>
</svg>
