<svg width="180" height="196" viewBox="0 0 180 196" fill="none" xmlns="http://www.w3.org/2000/svg">
<path d="M90 194C118.719 194 142 191.314 142 188C142 184.686 118.719 182 90 182C61.2812 182 38 184.686 38 188C38 191.314 61.2812 194 90 194Z" fill="#E5E7EB"/>
<path d="M124 14H40C35.5817 14 32 17.5817 32 22V134C32 138.418 35.5817 142 40 142H124C128.418 142 132 138.418 132 134V22C132 17.5817 128.418 14 124 14Z" fill="white" stroke="#E5E7EB" stroke-width="1.5"/>
<path d="M102 14L132 44H102V14Z" fill="#EEF2FF" stroke="#E5E7EB" stroke-width="1.5"/>
<path d="M102 14V44H132" stroke="#D1D5DB" stroke-width="1.5"/>
<path d="M58 58L72 70L66 82L80 96L74 108" stroke="#C7D2FE" stroke-width="1.8" stroke-linecap="round" stroke-linejoin="round"/>
<path d="M72 70L84 64L90 72" stroke="#C7D2FE" stroke-width="1.4" stroke-linecap="round" stroke-linejoin="round"/>
<path d="M79.5 54H46.5C45.1193 54 44 55.1193 44 56.5C44 57.8807 45.1193 59 46.5 59H79.5C80.8807 59 82 57.8807 82 56.5C82 55.1193 80.8807 54 79.5 54Z" fill="#E5E7EB"/>
<path opacity="0.7" d="M57.5 54H48.5C47.1193 54 46 55.1193 46 56.5C46 57.8807 47.1193 59 48.5 59H57.5C58.8807 59 60 57.8807 60 56.5C60 55.1193 58.8807 54 57.5 54Z" fill="#C7D2FE"/>
<path d="M92 66H46C44.8954 66 44 66.8954 44 68C44 69.1046 44.8954 70 46 70H92C93.1046 70 94 69.1046 94 68C94 66.8954 93.1046 66 92 66Z" fill="#F3F4F6"/>
<path opacity="0.8" d="M59 66H43C41.8954 66 41 66.8954 41 68C41 69.1046 41.8954 70 43 70H59C60.1046 70 61 69.1046 61 68C61 66.8954 60.1046 66 59 66Z" fill="#E0E7FF"/>
<path d="M84 76H46C44.8954 76 44 76.8954 44 78C44 79.1046 44.8954 80 46 80H84C85.1046 80 86 79.1046 86 78C86 76.8954 85.1046 76 84 76Z" fill="#F3F4F6"/>
<path d="M76 86H46C44.8954 86 44 86.8954 44 88C44 89.1046 44.8954 90 46 90H76C77.1046 90 78 89.1046 78 88C78 86.8954 77.1046 86 76 86Z" fill="#F3F4F6"/>
<path opacity="0.5" d="M88 96H46C44.8954 96 44 96.8954 44 98C44 99.1046 44.8954 100 46 100H88C89.1046 100 90 99.1046 90 98C90 96.8954 89.1046 96 88 96Z" fill="#F3F4F6"/>
<path d="M32 116C36 113.333 40.3333 113.333 45 116C49.6667 118.667 54.3333 118.667 59 116C63.6667 113.333 68.3333 113.333 73 116C77.6667 118.667 82.3333 118.667 87 116C91.6667 113.333 96.3333 113.333 101 116C105.667 118.667 110.333 118.667 115 116C119.667 113.333 124 113.333 128 116C129.333 117.333 130.667 118.667 132 120V142C126.667 140 122 140.667 118 144C112.667 148 107.333 148 102 144C96.6667 140 91.3333 140 86 144C80.6667 148 75.3333 148 70 144C64.6667 140 59.3333 140 54 144C48.6667 148 43.3333 148 38 144C35.3333 142.667 33.3333 141.333 32 140V116Z" fill="#F9FAFB" stroke="#D1D5DB" stroke-width="1.2"/>
<path d="M90 178C101.046 178 110 169.046 110 158C110 146.954 101.046 138 90 138C78.9543 138 70 146.954 70 158C70 169.046 78.9543 178 90 178Z" fill="#EEF2FF" stroke="#C7D2FE" stroke-width="1.5"/>
<path d="M82 164L90 148L98 164H82Z" fill="#E0E7FF" stroke="#6366F1" stroke-width="1.8" stroke-linejoin="round"/>
<path d="M91 155C91 154.448 90.5523 154 90 154C89.4477 154 89 154.448 89 155V158C89 158.552 89.4477 159 90 159C90.5523 159 91 158.552 91 158V155Z" fill="#6366F1"/>
<path d="M90 162.5C90.5523 162.5 91 162.052 91 161.5C91 160.948 90.5523 160.5 90 160.5C89.4477 160.5 89 160.948 89 161.5C89 162.052 89.4477 162.5 90 162.5Z" fill="#6366F1"/>
<path d="M128 40C134.627 40 140 34.6274 140 28C140 21.3726 134.627 16 128 16C121.373 16 116 21.3726 116 28C116 34.6274 121.373 40 128 40Z" fill="#EDE9FE" stroke="#C4B5FD" stroke-width="1.2"/>
<path d="M131 22L127 29H130L126 36L130.5 28.5H127.5L131 22Z" fill="#6366F1"/>
</svg>
