<svg viewBox="0 0 16 16" fill="none" xmlns="http://www.w3.org/2000/svg">
<path d="M7.3335 9.99967V1.99967C7.3335 1.63148 7.63197 1.33301 8.00016 1.33301C8.36835 1.33301 8.66683 1.63148 8.66683 1.99967V9.99967C8.66683 10.3679 8.36835 10.6663 8.00016 10.6663C7.63197 10.6663 7.3335 10.3679 7.3335 9.99967Z" fill="currentColor"/>
<path d="M7.57938 1.48259C7.84123 1.26902 8.22723 1.28409 8.4713 1.52816L11.8046 4.8615C12.065 5.12185 12.065 5.54386 11.8046 5.80421C11.5443 6.06456 11.1223 6.06456 10.8619 5.80421L7.99995 2.94223L5.13797 5.80421C4.87762 6.06456 4.45561 6.06456 4.19526 5.80421C3.93491 5.54386 3.93491 5.12185 4.19526 4.8615L7.5286 1.52816L7.57938 1.48259Z" fill="currentColor"/>
<path d="M1.3335 12.6663V9.99967C1.3335 9.63148 1.63197 9.33301 2.00016 9.33301C2.36835 9.33301 2.66683 9.63148 2.66683 9.99967V12.6663C2.66683 12.8432 2.73712 13.0127 2.86214 13.1377C2.98717 13.2627 3.15669 13.333 3.3335 13.333H12.6668C12.8436 13.333 13.0132 13.2627 13.1382 13.1377C13.2632 13.0127 13.3335 12.8432 13.3335 12.6663V9.99967C13.3335 9.63148 13.632 9.33301 14.0002 9.33301C14.3684 9.33301 14.6668 9.63148 14.6668 9.99967V12.6663C14.6668 13.1968 14.456 13.7053 14.0809 14.0804C13.7058 14.4555 13.1973 14.6663 12.6668 14.6663H3.3335C2.80306 14.6663 2.29451 14.4555 1.91943 14.0804C1.54436 13.7053 1.3335 13.1968 1.3335 12.6663Z" fill="currentColor"/>
</svg>
