<svg viewBox="0 0 32 32" fill="none" xmlns="http://www.w3.org/2000/svg">
<path d="M28.9219 8.51009C29.0954 8.53241 29.2654 8.57643 29.4272 8.6429L29.6628 8.75879L29.8816 8.90462C30.0899 9.06392 30.265 9.26341 30.3972 9.49186C30.5733 9.79629 30.6667 10.1415 30.6667 10.4932V21.4215L30.6485 21.6911C30.6121 21.9581 30.5223 22.2161 30.3829 22.4489C30.1969 22.7592 29.9297 23.0138 29.6107 23.1846C29.292 23.3552 28.9328 23.4361 28.5717 23.4189C28.2103 23.4017 27.8598 23.286 27.5587 23.0856H27.5574L20.5938 18.4424C19.9812 18.0339 19.8156 17.2061 20.224 16.5934C20.6325 15.981 21.4604 15.8154 22.073 16.2236L28.0001 20.1755V11.6533L22.0053 15.152C21.3693 15.523 20.5534 15.3075 20.1824 14.6715C19.8113 14.0355 20.0256 13.2197 20.6615 12.8486L27.6589 8.7653L27.8933 8.64811C28.1353 8.54668 28.3962 8.49406 28.6602 8.49316L28.9219 8.51009Z" fill="currentColor"/>
<path d="M20.0002 10.6665C20.0002 9.93012 19.4032 9.33317 18.6668 9.33317H5.3335C4.59712 9.33317 4.00016 9.93012 4.00016 10.6665V21.3332C4.00016 22.0695 4.59712 22.6665 5.3335 22.6665H18.6668C19.4032 22.6665 20.0002 22.0695 20.0002 21.3332V10.6665ZM22.6668 21.3332C22.6668 23.5423 20.876 25.3332 18.6668 25.3332H5.3335C3.12436 25.3332 1.3335 23.5423 1.3335 21.3332V10.6665C1.3335 8.45736 3.12436 6.6665 5.3335 6.6665H18.6668C20.876 6.6665 22.6668 8.45736 22.6668 10.6665V21.3332Z" fill="currentColor"/>
</svg>
