<svg viewBox="0 0 16 16" fill="none" xmlns="http://www.w3.org/2000/svg">
<path d="M14.461 4.25505C14.5477 4.26621 14.6327 4.28821 14.7136 4.32145L14.8314 4.37939L14.9408 4.45231C15.0449 4.53196 15.1325 4.6317 15.1986 4.74593C15.2867 4.89814 15.3334 5.07073 15.3334 5.24658V10.7108L15.3243 10.8455C15.3061 10.979 15.2611 11.1081 15.1914 11.2244C15.0985 11.3796 14.9648 11.5069 14.8054 11.5923C14.646 11.6776 14.4664 11.7181 14.2858 11.7095C14.1052 11.7008 13.9299 11.643 13.7793 11.5428H13.7787L10.2969 9.22119C9.99062 9.01694 9.9078 8.60304 10.112 8.29671C10.3163 7.99049 10.7302 7.90768 11.0365 8.11182L14 10.0877V5.82666L11.0026 7.57601C10.6846 7.76148 10.2767 7.65376 10.0912 7.33577C9.90566 7.01777 10.0128 6.60987 10.3308 6.42432L13.8295 4.38265L13.9466 4.32406C14.0676 4.27334 14.1981 4.24703 14.3301 4.24658L14.461 4.25505Z" fill="currentColor"/>
<path d="M9.99984 5.3335C9.99984 4.96531 9.70136 4.66683 9.33317 4.66683H2.6665C2.29831 4.66683 1.99984 4.96531 1.99984 5.3335V10.6668C1.99984 11.035 2.29831 11.3335 2.6665 11.3335H9.33317C9.70136 11.3335 9.99984 11.035 9.99984 10.6668V5.3335ZM11.3332 10.6668C11.3332 11.7714 10.4377 12.6668 9.33317 12.6668H2.6665C1.56193 12.6668 0.666504 11.7714 0.666504 10.6668V5.3335C0.666504 4.22893 1.56193 3.3335 2.6665 3.3335H9.33317C10.4377 3.3335 11.3332 4.22893 11.3332 5.3335V10.6668Z" fill="currentColor"/>
</svg>
