<svg viewBox="0 0 14 14" fill="none" xmlns="http://www.w3.org/2000/svg">
<g clip-path="url(#clip0_53_4344)">
<path d="M12.2499 6.99967C12.2499 4.10018 9.89941 1.74967 6.99992 1.74967C4.10042 1.74967 1.74992 4.10018 1.74992 6.99967C1.74992 9.89917 4.10042 12.2497 6.99992 12.2497C9.89941 12.2497 12.2499 9.89917 12.2499 6.99967ZM13.4166 6.99967C13.4166 10.5435 10.5437 13.4163 6.99992 13.4163C3.45609 13.4163 0.583252 10.5435 0.583252 6.99967C0.583252 3.45585 3.45609 0.583008 6.99992 0.583008C10.5437 0.583008 13.4166 3.45585 13.4166 6.99967Z" fill="currentColor"/>
<path d="M6.41675 6.99967V4.66634C6.41675 4.34418 6.67792 4.08301 7.00008 4.08301C7.32225 4.08301 7.58341 4.34418 7.58341 4.66634V6.99967C7.58341 7.32184 7.32225 7.58301 7.00008 7.58301C6.67792 7.58301 6.41675 7.32184 6.41675 6.99967Z" fill="currentColor"/>
<path d="M7.00578 8.75C7.32794 8.75 7.58911 9.01117 7.58911 9.33333C7.58911 9.6555 7.32794 9.91667 7.00578 9.91667H7.00008C6.67792 9.91667 6.41675 9.6555 6.41675 9.33333C6.41675 9.01117 6.67792 8.75 7.00008 8.75H7.00578Z" fill="currentColor"/>
</g>
<defs>
<clipPath id="clip0_53_4344">
<rect width="14" height="14" fill="white"/>
</clipPath>
</defs>
</svg>
