<svg viewBox="0 0 16 16" fill="none" xmlns="http://www.w3.org/2000/svg">
<path d="M11.5288 3.52865C11.7891 3.2683 12.2111 3.2683 12.4715 3.52865C12.7318 3.789 12.7318 4.21101 12.4715 4.47136L4.47147 12.4714C4.21112 12.7317 3.78911 12.7317 3.52876 12.4714C3.26841 12.211 3.26841 11.789 3.52876 11.5287L11.5288 3.52865Z" fill="currentColor"/>
<path d="M3.52876 3.52865C3.78911 3.2683 4.21112 3.2683 4.47147 3.52865L12.4715 11.5287C12.7318 11.789 12.7318 12.211 12.4715 12.4714C12.2111 12.7317 11.7891 12.7317 11.5288 12.4714L3.52876 4.47136C3.26841 4.21101 3.26841 3.789 3.52876 3.52865Z" fill="currentColor"/>
</svg>
